<?xml version="1.0" encoding="UTF-8"?>
<svg version="1.1" xmlns="http://www.w3.org/2000/svg" width="500" height="500">
<path d="M0 0 C1.07411133 0.35126953 2.14822266 0.70253906 3.25488281 1.06445312 C32.1322569 10.61585661 67.82081632 23.50723063 83 52 C83.42023438 52.78375 83.84046875 53.5675 84.2734375 54.375 C87.62719788 61.22523396 89.14548417 68.27969753 86.91796875 75.76953125 C81.85970762 88.06002958 74.11098236 98.62386802 61.76171875 103.96875 C49.05979237 108.45912005 35.79284808 105.6019352 23 103 C16.76239533 130.88099998 11.45934812 158.95906384 6 187 C6.68842987 187.40674957 7.37685974 187.81349915 8.08615112 188.23257446 C8.98826324 188.76893524 9.89037537 189.30529602 10.81982422 189.85791016 C12.16184402 190.65365952 12.16184402 190.65365952 13.53097534 191.46548462 C18.22406455 194.38227103 22.03196941 198.18860219 26 202 C26.70125 202.6496875 27.4025 203.299375 28.125 203.96875 C35.86967441 211.35039279 41.57467572 219.73726947 46.375 229.25 C46.70886719 229.91128906 47.04273438 230.57257813 47.38671875 231.25390625 C52.0123913 240.75271532 53.90897365 250.97974827 51.41796875 261.4453125 C50.4494962 263.77141553 49.29381193 265.83555323 48 268 C47.33615107 269.18689183 46.67349807 270.37445297 46.01171875 271.5625 C39.72947599 282.62784548 33.62823689 292.3611047 21.12890625 296.640625 C-11.42178768 305.52385531 -46.09873069 291.67852695 -76 280 C-76.33 281.13308594 -76.66 282.26617187 -77 283.43359375 C-79.6209828 291.27063709 -83.42898811 298.62653548 -87 306.0625 C-87.80531701 307.74998267 -88.61007441 309.43773249 -89.41430664 311.12573242 C-91.09532648 314.65215421 -92.77908217 318.17724797 -94.46533203 321.70117188 C-98.46777286 330.06603412 -102.45497139 338.43814201 -106.4375 346.8125 C-106.82670624 347.63064178 -107.21591248 348.44878357 -107.61691284 349.29171753 C-113.41594234 361.48769631 -119.14991629 373.71280061 -124.82821655 385.9654541 C-126.04945673 388.59689528 -127.2758864 391.22586689 -128.50317383 393.85449219 C-131.74652139 400.81951446 -134.96476464 407.7651599 -137.81640625 414.90234375 C-142.97230247 427.67848339 -149.47137345 435.52269324 -160.05419922 444.34130859 C-162.71809596 446.61213852 -165.12530706 449.04996879 -167.5625 451.5625 C-170.15695416 454.23542536 -172.82724622 456.72911333 -175.65234375 459.15234375 C-180.68542579 463.51989428 -185.32579209 468.25497076 -190 473 C-199.43938721 482.58240823 -199.43938721 482.58240823 -204.375 487.125 C-204.98085937 487.68445313 -205.58671875 488.24390625 -206.2109375 488.8203125 C-208 490 -208 490 -212 490 C-210.72204587 483.57338454 -208.92782797 477.74606929 -206.46484375 471.68359375 C-206.11430939 470.80610474 -205.76377502 469.92861572 -205.40261841 469.02453613 C-204.25497733 466.15915475 -203.09666955 463.298235 -201.9375 460.4375 C-201.1286725 458.42722601 -200.31999958 456.41688983 -199.51147461 454.40649414 C-193.83617797 440.33845184 -187.96267738 426.35994235 -181.98220825 412.41931152 C-177.61261952 402.23368213 -173.36464526 392.02924812 -169.375 381.6875 C-165.28131455 371.07970206 -160.86758436 360.63834052 -156.33758545 350.21258545 C-148.55062209 332.25222407 -141.30420292 314.0708472 -134.03222656 295.89770508 C-129.58812843 284.8044698 -125.1251033 273.7412034 -120.2421875 262.83276367 C-118.95136526 260.00639143 -118.95136526 260.00639143 -118 257 C-118.680625 256.7525 -119.36125 256.505 -120.0625 256.25 C-134.52216986 250.09694899 -147.29529923 239.63271907 -158.73828125 229.07421875 C-160.78324667 227.19878414 -162.87619475 225.40967467 -165 223.625 C-175.13270532 214.7409715 -186.85482797 203.13936889 -188 189 C-188.61514745 175.40817063 -185.09340622 159.36719075 -176 149 C-165.53314846 137.82830997 -153.96475112 133.05869919 -138.77734375 131.71484375 C-125.66991097 131.34127379 -112.65857241 134.94373509 -100 138 C-91.01330648 126.21525172 -82.44919075 114.17415198 -74 102 C-71.56582046 98.49767637 -69.12791399 94.99798187 -66.6875 91.5 C-65.81847046 90.25053589 -65.81847046 90.25053589 -64.93188477 88.97583008 C-62.38117523 85.32522976 -59.81025202 81.7071284 -57.0859375 78.18359375 C-56.43878784 77.34634766 -56.43878784 77.34634766 -55.77856445 76.4921875 C-54.65646891 75.05763532 -53.51838626 73.63562652 -52.37890625 72.21484375 C-51.92386719 71.48394531 -51.46882812 70.75304687 -51 70 C-52.21807146 66.34578563 -53.52024376 65.60232035 -56.5625 63.3125 C-65.21213874 56.54803893 -73.02201274 48.95597453 -78 39 C-79.3325131 25.69390486 -76.00046848 13.34479782 -68.734375 2.08984375 C-51.86306853 -18.23932057 -20.48304148 -6.78323197 0 0 Z " fill="#AD173F" transform="translate(312,9)"/>
<path d="M0 0 C0.66 0 1.32 0 2 0 C1.9685791 0.60360352 1.9371582 1.20720703 1.90478516 1.82910156 C1.21763782 17.03912228 1.8936815 27.1579581 12.1875 39.0625 C13.777754 40.72178005 15.38255018 42.3672189 17 44 C17.84691406 44.89589844 18.69382813 45.79179687 19.56640625 46.71484375 C52.36349498 80.75316146 110.55287014 108.47001802 157 115 C157.64485352 115.09861328 158.28970703 115.19722656 158.95410156 115.29882812 C176.16403913 117.90118673 197.45287595 120.20510971 213.2578125 111.28515625 C219.1673455 106.92588191 223.46183318 101.2238906 225 94 C226.08218489 86.66819736 223.85852202 80.68654278 221 74 C220.73445312 73.33355469 220.46890625 72.66710937 220.1953125 71.98046875 C214.01672579 58.00509404 201.56573313 47.21444015 190.83422852 36.78662109 C190.22893311 36.19703613 189.6236377 35.60745117 189 35 C188.12782837 34.20843506 188.12782837 34.20843506 187.23803711 33.40087891 C186.82948486 32.93858887 186.42093262 32.47629883 186 32 C186.3125 29.8125 186.3125 29.8125 187 28 C196.86296312 28 203.50852112 36.32728806 210.125 42.8125 C222.44366781 55.2596698 234.1852101 72.26904309 234.375 90.375 C234.25149213 97.0184232 233.37803331 101.34881291 230 107 C229.33615107 108.18689183 228.67349807 109.37445297 228.01171875 110.5625 C221.72947599 121.62784548 215.62823689 131.3611047 203.12890625 135.640625 C170.57821232 144.52385531 135.90126931 130.67852695 106 119 C105.67 120.13308594 105.34 121.26617187 105 122.43359375 C102.3790172 130.27063709 98.57101189 137.62653548 95 145.0625 C94.19468299 146.74998267 93.38992559 148.43773249 92.58569336 150.12573242 C90.90467352 153.65215421 89.22091783 157.17724797 87.53466797 160.70117188 C83.53222714 169.06603412 79.54502861 177.43814201 75.5625 185.8125 C75.17329376 186.63064178 74.78408752 187.44878357 74.38308716 188.29171753 C68.58405766 200.48769631 62.85008371 212.71280061 57.17178345 224.9654541 C55.95054327 227.59689528 54.7241136 230.22586689 53.49682617 232.85449219 C50.25347861 239.81951446 47.03523536 246.7651599 44.18359375 253.90234375 C39.02769753 266.67848339 32.52862655 274.52269324 21.94580078 283.34130859 C19.28190404 285.61213852 16.87469294 288.04996879 14.4375 290.5625 C11.84304584 293.23542536 9.17275378 295.72911333 6.34765625 298.15234375 C1.31457421 302.51989428 -3.32579209 307.25497076 -8 312 C-17.43938721 321.58240823 -17.43938721 321.58240823 -22.375 326.125 C-22.98085937 326.68445313 -23.58671875 327.24390625 -24.2109375 327.8203125 C-26 329 -26 329 -30 329 C-28.72204587 322.57338454 -26.92782797 316.74606929 -24.46484375 310.68359375 C-24.11430939 309.80610474 -23.76377502 308.92861572 -23.40261841 308.02453613 C-22.25497733 305.15915475 -21.09666955 302.298235 -19.9375 299.4375 C-19.1286725 297.42722601 -18.31999958 295.41688983 -17.51147461 293.40649414 C-11.83617797 279.33845184 -5.96267738 265.35994235 0.01779175 251.41931152 C4.38738048 241.23368213 8.63535474 231.02924812 12.625 220.6875 C16.71868545 210.07970206 21.13241564 199.63834052 25.66241455 189.21258545 C33.44937791 171.25222407 40.69579708 153.0708472 47.96777344 134.89770508 C52.41187157 123.8044698 56.8748967 112.7412034 61.7578125 101.83276367 C63.04863474 99.00639143 63.04863474 99.00639143 64 96 C63.319375 95.7525 62.63875 95.505 61.9375 95.25 C47.47783014 89.09694899 34.70470077 78.63271907 23.26171875 68.07421875 C21.21675333 66.19878414 19.12380525 64.40967467 17 62.625 C6.86729468 53.7409715 -4.85482797 42.13936889 -6 28 C-6.25207591 21.90493381 -5.50207501 16.5532591 -4.125 10.625 C-3.86396484 9.41650391 -3.86396484 9.41650391 -3.59765625 8.18359375 C-2.25760958 2.25760958 -2.25760958 2.25760958 0 0 Z " fill="#120D0D" transform="translate(130,170)"/>
<path d="M0 0 C3.2015611 0.64530049 5.61523157 1.7856778 8.421875 3.44140625 C9.27434814 3.93882324 10.12682129 4.43624023 11.00512695 4.94873047 C11.91093506 5.48127441 12.81674316 6.01381836 13.75 6.5625 C30.67866998 16.35267924 47.42931388 23.87367043 66 30 C64.79468902 34.87140089 63.58602886 39.74195527 62.37451172 44.61181641 C61.96445331 46.26198892 61.55524615 47.91237325 61.14697266 49.56298828 C59.21570329 57.36873304 57.28426122 65.15344871 54.98046875 72.859375 C52.5502132 81.22541167 50.85397559 89.73184092 49.13757324 98.26690674 C48.55279436 101.17323669 47.95897229 104.07762201 47.36425781 106.98193359 C45.60177757 115.64424459 43.89407481 124.30452002 42.48046875 133.03125 C42.37098404 133.69615448 42.26149933 134.36105896 42.1486969 135.04611206 C41.65458779 138.06129818 41.18638152 141.07644714 40.76000977 144.10205078 C40.59686279 145.13313965 40.43371582 146.16422852 40.265625 147.2265625 C40.13961914 148.10908691 40.01361328 148.99161133 39.88378906 149.90087891 C39 152 39 152 36.5847168 153.26074219 C16.00705675 159.14618232 -9.19026883 155.17480577 -27.796875 145.01171875 C-42.69355615 135.65587632 -63.80715447 120.16958232 -70 103 C-69.7762517 98.51059868 -67.82707641 96.1957825 -64.9375 92.875 C-60.33138819 87.43339472 -56.13119272 81.80683537 -52 76 C-51.20995708 74.89560316 -50.41957893 73.79144606 -49.62890625 72.6875 C-47.9349124 70.32084679 -46.24374157 67.9522123 -44.5546875 65.58203125 C-42.9176823 63.28514319 -41.27733375 60.99073108 -39.6328125 58.69921875 C-29.28925856 44.27931376 -19.11119095 29.7550491 -9.25 15 C-8.55825684 13.96697754 -7.86651367 12.93395508 -7.15380859 11.86962891 C-6.18822021 10.4182251 -6.18822021 10.4182251 -5.203125 8.9375 C-4.63239258 8.08027344 -4.06166016 7.22304687 -3.47363281 6.33984375 C-2.17049335 4.27071045 -1.04435605 2.20857714 0 0 Z " fill="#AD1740" transform="translate(264,80)"/>
<path d="M0 0 C1.65 0 3.3 0 5 0 C5.33 0.66 5.66 1.32 6 2 C8.03276244 2.19617687 10.07560353 2.28941134 12.1171875 2.33984375 C20.23868807 2.81570489 27.43840174 4.93428649 35.125 7.5625 C36.49142873 8.01798307 37.85804918 8.47289136 39.22485352 8.92724609 C55.7404413 14.46368187 71.59354461 20.86440328 87 29 C87.84691406 29.43957031 88.69382812 29.87914063 89.56640625 30.33203125 C105.48476019 38.84649963 124.55029514 51.68006613 130.5 69.8125 C131.5318692 76.39066617 131.41172996 81.13608913 128 87 C118.05322131 96.558054 107.3843693 98.47955135 94.08984375 98.27734375 C86.72155494 97.99942556 79.97817187 96.28289456 73 94 C71.76507813 93.59910156 70.53015625 93.19820313 69.2578125 92.78515625 C44.04367387 84.10642374 18.73744723 71.18895198 0 52 C-0.87527344 51.12988281 -1.75054687 50.25976562 -2.65234375 49.36328125 C-9.91862073 42.04864303 -15.94641478 34.46280966 -16.3125 23.75 C-16.24379874 17.79261903 -14.03871779 13.3919167 -10.21875 8.91015625 C-7.65989758 6.70720056 -5.44249482 5.81416494 -2.25 4.75 C-1.26515625 4.41484375 -0.2803125 4.0796875 0.734375 3.734375 C1.48203125 3.49203125 2.2296875 3.2496875 3 3 C2.01 2.01 1.02 1.02 0 0 Z " fill="#AD173F" transform="translate(260,1)"/>
<path d="M0 0 C1.07411133 0.35126953 2.14822266 0.70253906 3.25488281 1.06445312 C32.1322569 10.61585661 67.82081632 23.50723063 83 52 C83.42023438 52.78375 83.84046875 53.5675 84.2734375 54.375 C87.62719788 61.22523396 89.14548417 68.27969753 86.91796875 75.76953125 C81.85970762 88.06002958 74.11098236 98.62386802 61.76171875 103.96875 C49.05979237 108.45912005 35.79284808 105.6019352 23 103 C19.00315582 120.86519319 15.36230908 138.8078552 11.77505493 156.7590332 C11.25708006 159.34268707 10.73506611 161.92553436 10.20907593 164.50756836 C9.46157479 168.18260361 8.72897935 171.86031476 8 175.5390625 C7.76807449 176.6649881 7.53614899 177.7909137 7.29719543 178.95095825 C7.09599594 179.98243988 6.89479645 181.01392151 6.6875 182.07666016 C6.41486328 183.4355687 6.41486328 183.4355687 6.13671875 184.82192993 C6.09160156 185.54069305 6.04648437 186.25945618 6 187 C6.66 187.66 7.32 188.32 8 189 C7.01 189.33 6.02 189.66 5 190 C4.67 190.66 4.34 191.32 4 192 C4.66 192.33 5.32 192.66 6 193 C5.34 193 4.68 193 4 193 C3.86948242 193.8878418 3.73896484 194.77568359 3.60449219 195.69042969 C3.1106506 198.99510346 2.60209187 202.29681305 2.08349609 205.59765625 C1.86241499 207.02448715 1.64717486 208.45223618 1.43798828 209.88085938 C1.13558592 211.93891525 0.81206093 213.99271226 0.484375 216.046875 C0.29584961 217.28276367 0.10732422 218.51865234 -0.08691406 219.79199219 C-1.10130013 223.35590473 -2.11042588 224.73935293 -5 227 C-24.77394598 235.02851942 -49.09296587 232.37143782 -68.37890625 224.23828125 C-90.1081558 214.30638033 -111.64593483 196.15498059 -122.2265625 174.48828125 C-123.1013986 171.67378329 -123.13090105 170.68786249 -122 168 C-120.50390625 165.66015625 -120.50390625 165.66015625 -118.5625 163.0625 C-117.85222656 162.10601562 -117.14195312 161.14953125 -116.41015625 160.1640625 C-114.70040348 157.91949241 -112.98146971 155.68546763 -111.24609375 153.4609375 C-110.56148071 152.58103149 -110.56148071 152.58103149 -109.86303711 151.68334961 C-108.9639578 150.53176155 -108.05991479 149.38402934 -107.15063477 148.24047852 C-104.74187417 145.45455311 -104.74187417 145.45455311 -104 142 C-120.43829148 136.95868388 -139.930979 132.8358667 -156.4921875 139.66796875 C-166.50950077 144.98869122 -172.6461032 151.08537629 -178 161 C-179.1875 159.4375 -179.1875 159.4375 -180 157 C-177.34897463 147.6330437 -169.84162297 142.40327688 -161.83984375 137.5078125 C-142.34960818 127.15948935 -120.1522294 133.13447886 -100 138 C-91.01330648 126.21525172 -82.44919075 114.17415198 -74 102 C-71.56582046 98.49767637 -69.12791399 94.99798187 -66.6875 91.5 C-66.10814697 90.66702393 -65.52879395 89.83404785 -64.93188477 88.97583008 C-62.38117523 85.32522976 -59.81025202 81.7071284 -57.0859375 78.18359375 C-56.65450439 77.62542969 -56.22307129 77.06726563 -55.77856445 76.4921875 C-54.65646891 75.05763532 -53.51838626 73.63562652 -52.37890625 72.21484375 C-51.92386719 71.48394531 -51.46882812 70.75304687 -51 70 C-52.21807146 66.34578563 -53.52024376 65.60232035 -56.5625 63.3125 C-65.21213874 56.54803893 -73.02201274 48.95597453 -78 39 C-79.33406345 25.67842353 -75.98544667 13.37585844 -68.74609375 2.09375 C-65.08545064 -2.29574599 -60.3879709 -5.2040097 -55 -7 C-52.66700175 -7.03954234 -50.33291811 -7.04401732 -48 -7 C-48 -6.01 -48 -5.02 -48 -4 C-48.80824219 -3.78085938 -49.61648438 -3.56171875 -50.44921875 -3.3359375 C-58.60081959 -0.91700649 -62.1087943 0.90597092 -66.3125 8.3125 C-68.33983993 16.23755609 -66.76122545 22.84562008 -63 30 C-60.73800923 33.48452886 -58.33479603 36.73333741 -55.31640625 39.59765625 C-54 41 -54 41 -54 43 C-53.42636719 43.24363281 -52.85273438 43.48726562 -52.26171875 43.73828125 C-49.60066898 45.22277015 -47.93975381 47.00166433 -45.8125 49.1875 C-22.00184287 71.18127968 18.75622536 90.35964215 51.59765625 89.34765625 C57.00440819 89.02920918 61.32700669 87.74932029 66 85 C66.82113281 84.55269531 67.64226562 84.10539062 68.48828125 83.64453125 C73.82288262 80.47099646 76.40852214 78.04761589 78 72 C79.0983376 61.93190533 73.66072884 53.85884066 68 46 C55.6214474 30.88417533 35.93665799 21.40461939 18.29736328 13.97949219 C16.06782313 13.02891673 13.85952754 12.04029008 11.65234375 11.0390625 C2.65459668 7.01597877 -6.52463994 3.66652061 -15.91244507 0.66964722 C-17.75202084 0.08182563 -19.58764096 -0.51833083 -21.4230957 -1.11889648 C-29.72394233 -3.69316249 -37.32441999 -4.74306205 -46 -5 C-46.33 -5.99 -46.66 -6.98 -47 -8 C-32.33495081 -12.88834973 -13.76622464 -4.55886862 0 0 Z M-48 71 C-49.5578092 73.14751227 -49.5578092 73.14751227 -51 76 C-55.04941759 83.2365375 -59.6704932 89.96831528 -64.42724609 96.75488281 C-66.07807515 99.11145282 -67.72109892 101.47333509 -69.36328125 103.8359375 C-76.67803818 114.34251386 -84.10529661 124.76272511 -91.63232422 135.11816406 C-92.78936885 136.71018478 -93.94380395 138.30410155 -95.09765625 139.8984375 C-111.81132836 162.96401472 -111.81132836 162.96401472 -116.69604492 169.14672852 C-118.186948 170.86975687 -118.186948 170.86975687 -117.9375 172.8125 C-115.06567532 179.51342425 -111.16116081 184.27033341 -106.21875 189.58984375 C-104.43033501 191.53254102 -102.77012247 193.50131458 -101.125 195.5625 C-86.77627881 212.40837432 -65.68186248 223.05409477 -44 226 C-26.10183303 227.47521203 -26.10183303 227.47521203 -9 223 C-8.41044692 221.22854623 -8.41044692 221.22854623 -8.07373047 219.05151367 C-7.84195602 217.78247948 -7.84195602 217.78247948 -7.60549927 216.48780823 C-7.36378494 215.09198769 -7.36378494 215.09198769 -7.1171875 213.66796875 C-6.85432449 212.21758461 -6.85432449 212.21758461 -6.58615112 210.73789978 C-6.2073537 208.64758893 -5.83205798 206.55664119 -5.45983887 204.46514893 C-4.47814501 198.96338082 -3.46366461 193.46774157 -2.4453125 187.97265625 C-2.24075439 186.86855408 -2.03619629 185.7644519 -1.82543945 184.62689209 C1.90939097 164.62841844 6.10684856 144.60185657 11.8359375 125.0703125 C14.15687488 117.1214026 16.02756504 109.04081997 18 101 C17.38705078 100.79955078 16.77410156 100.59910156 16.14257812 100.39257812 C3.21065138 96.12707349 -9.05123894 91.53195285 -21 85 C-22.76167473 84.05200152 -24.5233963 83.10409009 -26.28515625 82.15625 C-29.79487965 80.25401921 -33.30247057 78.34821452 -36.796875 76.41796875 C-37.51198242 76.02375732 -38.22708984 75.6295459 -38.96386719 75.22338867 C-41 74 -41 74 -43.07519531 72.34887695 C-45.01773264 70.71305276 -45.01773264 70.71305276 -48 71 Z " fill="#120709" transform="translate(312,9)"/>
<path d="M0 0 C4.3541772 0.77425383 7.89964671 2.27002711 11.796875 4.30859375 C12.43111389 4.63537613 13.06535278 4.96215851 13.71881104 5.29884338 C15.0515944 5.98759052 16.38276883 6.67945909 17.71240234 7.37426758 C19.75288636 8.43900612 21.79977536 9.49058762 23.84765625 10.54101562 C25.14363121 11.21276658 26.43921825 11.88526659 27.734375 12.55859375 C28.65461456 13.03056435 28.65461456 13.03056435 29.59344482 13.5120697 C33.88494466 15.76988932 33.88494466 15.76988932 35 18 C34.00292969 20.52416992 34.00292969 20.52416992 32.421875 23.73046875 C31.8436499 24.91398926 31.2654248 26.09750977 30.66967773 27.31689453 C30.02983897 28.60712304 29.38994504 29.8973242 28.75 31.1875 C28.09947217 32.51373395 27.44982148 33.84039849 26.80102539 35.16748047 C25.48828302 37.85154848 24.17228632 40.53398105 22.85400391 43.21533203 C20.3420386 48.33290519 17.88727988 53.47743102 15.4375 58.625 C12.60146667 64.57074648 9.7558831 70.51156458 6.88671875 76.44140625 C0.85646623 88.90859852 -5.08119288 101.41197989 -10.89379883 113.98217773 C-15.06346884 122.99627243 -19.26811447 131.99338439 -23.49520874 140.98068237 C-24.19857545 142.47620897 -24.9015671 143.97191203 -25.60415649 145.46780396 C-27.1962218 148.85699683 -28.79242513 152.24401496 -30.40185547 155.625 C-31.33513935 157.59593132 -32.25674323 159.57262579 -33.14892578 161.5625 C-35.26152793 166.15220635 -37.93864176 169.27797874 -41.75 172.5 C-42.90647968 173.5228465 -44.05997889 174.54906985 -45.2109375 175.578125 C-45.82163086 176.12275391 -46.43232422 176.66738281 -47.06152344 177.22851562 C-50.60232563 180.46429153 -53.98621848 183.85646563 -57.375 187.25 C-58.35484863 188.22356445 -58.35484863 188.22356445 -59.35449219 189.21679688 C-63.1500296 193.02199215 -66.72942374 196.95154422 -70.24121094 201.01855469 C-73.16881922 204.31678745 -76.29864615 207.40432615 -79.4375 210.5 C-80.07365234 211.13164062 -80.70980469 211.76328125 -81.36523438 212.4140625 C-82.90782806 213.94505774 -84.45357314 215.47287667 -86 217 C-87.32433307 213.02700079 -86.01129261 210.70121971 -84.52734375 206.9921875 C-84.25368988 206.28810257 -83.98003601 205.58401764 -83.6980896 204.8585968 C-82.78787208 202.52667854 -81.86321454 200.20080578 -80.9375 197.875 C-80.29099141 196.23228332 -79.64475498 194.58945951 -78.9987793 192.9465332 C-74.66124321 181.96309942 -70.13050636 171.06921585 -65.46704102 160.22073364 C-59.9257951 147.32978279 -54.6649057 134.33349707 -49.4375 121.3125 C-44.27033116 108.44247147 -39.05298395 95.61899184 -33.4375 82.9375 C-27.00767682 68.39357952 -21.26432625 53.59050364 -15.52905273 38.76147461 C-10.50450816 25.77677632 -5.3195063 12.86677139 0 0 Z " fill="#E3E3E3" transform="translate(197,269)"/>
<path d="M0 0 C1.07411133 0.35126953 2.14822266 0.70253906 3.25488281 1.06445312 C32.1322569 10.61585661 67.82081632 23.50723063 83 52 C83.42023438 52.78375 83.84046875 53.5675 84.2734375 54.375 C87.62719788 61.22523396 89.14548417 68.27969753 86.91796875 75.76953125 C81.85970762 88.06002958 74.11098236 98.62386802 61.76171875 103.96875 C49.05979237 108.45912005 35.79284808 105.6019352 23 103 C22.34 103.99 21.68 104.98 21 106 C20.67 105.01 20.34 104.02 20 103 C19.34 103 18.68 103 18 103 C18 102.34 18 101.68 18 101 C15.03 100.34 12.06 99.68 9 99 C9.495 97.02 9.495 97.02 10 95 C12.31 95.33 14.62 95.66 17 96 C16.17314697 95.72289185 16.17314697 95.72289185 15.32958984 95.44018555 C-11.2092325 86.4379938 -37.97030289 74.14350221 -58 54 C-58.78375 53.26394531 -59.5675 52.52789062 -60.375 51.76953125 C-72.78456064 39.91105308 -72.78456064 39.91105308 -73.15234375 33.234375 C-73.10207031 32.49703125 -73.05179688 31.7596875 -73 31 C-72.34 31 -71.68 31 -71 31 C-70.525625 32.11375 -70.05125 33.2275 -69.5625 34.375 C-66.70425893 40.10161774 -62.39416336 44.41675905 -58 49 C-57.46761719 49.59554687 -56.93523437 50.19109375 -56.38671875 50.8046875 C-44.33201712 63.82501122 -27.68845817 72.2339526 -12 80 C-11.34 78.35 -10.68 76.7 -10 75 C-9.47792969 75.18175781 -8.95585937 75.36351563 -8.41796875 75.55078125 C-4.30737624 76.95457379 -0.2071594 78.23010677 4 79.3125 C8.96595029 80.62557828 13.73977129 82.31122098 18.5625 84.0625 C31.74644489 88.75961975 47.9549459 92.5173401 61.625 87.375 C63.10969546 86.63395235 64.56980869 85.84144224 66 85 C66.82113281 84.55269531 67.64226562 84.10539062 68.48828125 83.64453125 C73.82288262 80.47099646 76.40852214 78.04761589 78 72 C79.0983376 61.93190533 73.66072884 53.85884066 68 46 C55.6214474 30.88417533 35.93665799 21.40461939 18.29736328 13.97949219 C16.06782313 13.02891673 13.85952754 12.04029008 11.65234375 11.0390625 C2.65459668 7.01597877 -6.52463994 3.66652061 -15.91244507 0.66964722 C-17.75202084 0.08182563 -19.58764096 -0.51833083 -21.4230957 -1.11889648 C-29.72394233 -3.69316249 -37.32441999 -4.74306205 -46 -5 C-46.33 -5.99 -46.66 -6.98 -47 -8 C-32.33495081 -12.88834973 -13.76622464 -4.55886862 0 0 Z " fill="#120A0A" transform="translate(312,9)"/>
<path d="M0 0 C0.33 0 0.66 0 1 0 C0.94199219 1.16015625 0.88398438 2.3203125 0.82421875 3.515625 C0.30374399 18.25819129 3.2229365 28.26424311 13.44921875 39.35253906 C23.30143443 49.81896718 33.1962049 59.74308737 45 68 C45.55268555 68.39171387 46.10537109 68.78342773 46.67480469 69.18701172 C56.86069987 76.36907776 67.60549322 82.5588792 78.49414062 88.60546875 C80.72799092 89.84862472 82.95041507 91.10991203 85.171875 92.375 C104.47623776 103.17820609 125.43021265 111.16525706 147 116 C147.89009766 116.20737793 148.78019531 116.41475586 149.69726562 116.62841797 C161.69170841 119.34758824 173.46664106 120.36681956 185.75 120.4375 C187.62365234 120.45272705 187.62365234 120.45272705 189.53515625 120.46826172 C199.67890456 120.3715638 207.97152144 118.62998901 217 114 C217.66 114.33 218.32 114.66 219 115 C205.98679625 125.89477523 188.16625911 125.83905235 172.03515625 124.7265625 C161.6637322 123.62828982 151.94139727 121.09133155 142 118 C141.12939941 117.73477539 140.25879883 117.46955078 139.36181641 117.19628906 C126.60475221 113.27557116 114.23164689 108.60620817 101.9375 103.4375 C101.30099518 103.17018066 100.66449036 102.90286133 100.00869751 102.62744141 C90.56392739 98.64497027 81.26307096 94.38578389 72 90 C72.33 90.99 72.66 91.98 73 93 C72.04988037 93.12689209 72.04988037 93.12689209 71.08056641 93.25634766 C68.87601349 93.76998655 68.87601349 93.76998655 68.21240234 95.63037109 C67.96417725 96.75306396 67.96417725 96.75306396 67.7109375 97.8984375 C66.3726794 102.96944774 64.61608212 107.74345772 62.6640625 112.6015625 C62.34687256 113.39332886 62.02968262 114.18509521 61.70288086 115.00085449 C60.68060919 117.54373959 59.65301123 120.08443039 58.625 122.625 C57.90432775 124.41426937 57.183954 126.203659 56.46386719 127.99316406 C54.653362 132.48911047 52.83728592 136.98278464 51.01989746 141.47595215 C49.78081707 144.54243512 48.54648992 147.61081447 47.31262207 150.67939758 C41.69828629 164.63644042 35.95090321 178.52094558 29.96020508 192.32177734 C23.85142959 206.50211529 18.15081621 220.85170459 12.40966797 235.18383789 C12.00844223 236.18299728 11.60721649 237.18215668 11.1938324 238.21159363 C10.43707008 240.09660466 9.68243435 241.98247137 8.93031311 243.86933899 C5.12498161 253.34346382 5.12498161 253.34346382 3 257 C0.3125 257.875 0.3125 257.875 -2 258 C0.51144272 250.06143277 3.59690482 242.38708364 6.75 234.6875 C7.32363718 233.28135972 7.8972032 231.8751904 8.47070312 230.46899414 C16.2830092 211.34163418 24.23204547 192.26876646 32.27734375 173.23828125 C33.33150389 170.74251385 34.38486717 168.24641194 35.4375 165.75 C35.69525208 165.13888367 35.95300415 164.52776733 36.21856689 163.89813232 C41.78068514 150.68945489 47.08702461 137.3792164 52.35717773 124.05175781 C55.69635456 115.62706792 59.12313537 107.26075364 62.81137085 98.98194885 C63.98777195 96.33984956 65.08454633 93.74636101 66 91 C65.319375 90.7525 64.63875 90.505 63.9375 90.25 C49.47783014 84.09694899 36.70470077 73.63271907 25.26171875 63.07421875 C23.21675333 61.19878414 21.12380525 59.40967467 19 57.625 C6.97140672 47.07871821 -2.93270566 35.59407317 -4.3125 19.3125 C-4.18620443 14.13438155 -3.71223707 3.71223707 0 0 Z " fill="#161616" transform="translate(128,175)"/>
<path d="M0 0 C0.99 0.99 0.99 0.99 2 2 C1.21625 2.804375 0.4325 3.60875 -0.375 4.4375 C-2.54653623 7.01258942 -3.30444211 8.79827407 -3.7578125 12.1171875 C-4.93711614 17.93386318 -8.00990867 21.98901739 -11.5 26.6875 C-12.1300293 27.56035645 -12.76005859 28.43321289 -13.40917969 29.33251953 C-14.67631804 31.08620032 -15.94932958 32.8356541 -17.22851562 34.58056641 C-19.19360126 37.26441407 -21.12484444 39.97057597 -23.04931641 42.68359375 C-24.23875119 44.35915377 -25.43460812 46.02992125 -26.6328125 47.69921875 C-28.27733375 49.99073108 -29.9176823 52.28514319 -31.5546875 54.58203125 C-54.47672784 86.74332343 -54.47672784 86.74332343 -62.69604492 97.14672852 C-64.186948 98.86975687 -64.186948 98.86975687 -63.9375 100.8125 C-61.05260327 107.5439257 -57.11783889 112.31250806 -52.15234375 117.65625 C-50 120 -50 120 -47.625 123.0625 C-44.29545266 126.78842202 -40.53491599 129.75741731 -36.62109375 132.8515625 C-34.25835731 134.78823172 -32.11556243 136.79981508 -30 139 C-30.61875 138.79375 -31.2375 138.5875 -31.875 138.375 C-32.926875 138.189375 -32.926875 138.189375 -34 138 C-34.66 138.66 -35.32 139.32 -36 140 C-48.41673376 129.7765871 -60.28696695 119.38040811 -67.8125 104.875 C-68.25207031 104.04742187 -68.69164062 103.21984375 -69.14453125 102.3671875 C-70.14437258 99.60050327 -70.13969637 98.68194604 -69 96 C-67.50390625 93.66015625 -67.50390625 93.66015625 -65.5625 91.0625 C-64.85222656 90.10601562 -64.14195312 89.14953125 -63.41015625 88.1640625 C-61.70040348 85.91949241 -59.98146971 83.68546763 -58.24609375 81.4609375 C-57.78968506 80.8743335 -57.33327637 80.28772949 -56.86303711 79.68334961 C-55.9639578 78.53176155 -55.05991479 77.38402934 -54.15063477 76.24047852 C-51.74187417 73.45455311 -51.74187417 73.45455311 -51 70 C-67.43829148 64.95868388 -86.930979 60.8358667 -103.4921875 67.66796875 C-113.50950077 72.98869122 -119.6461032 79.08537629 -125 89 C-126.1875 87.4375 -126.1875 87.4375 -127 85 C-124.34897463 75.6330437 -116.84162297 70.40327688 -108.83984375 65.5078125 C-89.34960818 55.15948935 -67.1522294 61.13447886 -47 66 C-38.65626085 55.05839334 -30.65836001 43.91174386 -22.81298828 32.60839844 C-19.74126793 28.18902593 -16.65089974 23.78272421 -13.5625 19.375 C-12.45954942 17.79953937 -11.35668201 16.22402051 -10.25390625 14.6484375 C-6.8359375 9.765625 -3.41796875 4.8828125 0 0 Z " fill="#1B0004" transform="translate(259,81)"/>
<path d="M0 0 C1.68372936 2.52559404 2.86770016 4.8236965 4.125 7.5625 C12.72221358 24.6586733 29.48419493 39.14648672 45 50 C45.55268555 50.39171387 46.10537109 50.78342773 46.67480469 51.18701172 C56.86069987 58.36907776 67.60549322 64.5588792 78.49414062 70.60546875 C80.72799092 71.84862472 82.95041507 73.10991203 85.171875 74.375 C104.47623776 85.17820609 125.43021265 93.16525706 147 98 C147.89009766 98.20737793 148.78019531 98.41475586 149.69726562 98.62841797 C161.69170841 101.34758824 173.46664106 102.36681956 185.75 102.4375 C187.62365234 102.45272705 187.62365234 102.45272705 189.53515625 102.46826172 C199.67890456 102.3715638 207.97152144 100.62998901 217 96 C217.66 96.33 218.32 96.66 219 97 C205.98679625 107.89477523 188.16625911 107.83905235 172.03515625 106.7265625 C161.6637322 105.62828982 151.94139727 103.09133155 142 100 C141.12939941 99.73477539 140.25879883 99.46955078 139.36181641 99.19628906 C111.11687997 90.5155749 80.84249748 79.14539333 56 63 C55.12730469 62.47148437 54.25460938 61.94296875 53.35546875 61.3984375 C46.40792283 57.14245832 40.17077236 52.31120729 34 47 C33.22398437 46.33613281 32.44796875 45.67226562 31.6484375 44.98828125 C26.13663452 40.14932379 20.90106702 35.03068443 15.6875 29.875 C15.00534424 29.205896 14.32318848 28.53679199 13.62036133 27.84741211 C8.31792724 22.55411453 3.22427222 17.28361008 1.1875 9.875 C0.95417969 9.06804687 0.72085938 8.26109375 0.48046875 7.4296875 C-0.02123559 4.89261351 -0.08720637 2.57947275 0 0 Z " fill="#911F3F" transform="translate(128,193)"/>
<path d="M0 0 C4.75 0.75 4.75 0.75 7 3 C6.34 3 5.68 3 5 3 C4.86658203 3.96292969 4.86658203 3.96292969 4.73046875 4.9453125 C3.72775841 9.13846483 2.02581407 12.92778644 0.3125 16.875 C-0.41776168 18.5815631 -1.14691615 20.28860038 -1.875 21.99609375 C-2.2359375 22.84155762 -2.596875 23.68702148 -2.96875 24.55810547 C-4.42211115 27.99951604 -5.81242739 31.46420902 -7.1875 34.9375 C-9.29571141 40.24769918 -11.45515965 45.53177413 -13.6640625 50.80078125 C-14.93276394 53.83898733 -16.18676246 56.88278743 -17.43676758 59.92871094 C-22.08182483 71.24674839 -26.77983053 82.54497902 -31.62890625 93.77734375 C-32.70896794 96.31595029 -33.73414247 98.84981528 -34.6875 101.4375 C-35.3371875 103.2009375 -35.3371875 103.2009375 -36 105 C-36.66 105 -37.32 105 -38 105 C-38.061875 105.9075 -38.12375 106.815 -38.1875 107.75 C-38.73793277 111.46542119 -39.87839083 114.85886703 -41.1875 118.375 C-41.76564453 119.93347656 -41.76564453 119.93347656 -42.35546875 121.5234375 C-44 124 -44 124 -47.17578125 124.8515625 C-48.10777344 124.90054688 -49.03976563 124.94953125 -50 125 C-47.95071102 117.49109974 -45.21711639 110.44781213 -42.125 103.3125 C-41.13370954 100.9936627 -40.14284172 98.67464468 -39.15234375 96.35546875 C-38.63526855 95.14938965 -38.11819336 93.94331055 -37.58544922 92.70068359 C-34.93461059 86.51648123 -32.30100317 80.32506656 -29.6875 74.125 C-29.41967712 73.48971375 -29.15185425 72.85442749 -28.87591553 72.19989014 C-23.67768461 59.83997978 -18.8053704 47.36066092 -13.98071289 34.85107422 C-9.47363452 23.16904407 -4.81249486 11.56017283 0 0 Z " fill="#DFDFDF" transform="translate(197,269)"/>
<path d="M0 0 C0.33 0 0.66 0 1 0 C0.98428955 0.64437012 0.9685791 1.28874023 0.95239258 1.95263672 C0.88929099 4.92666529 0.85077414 7.90055229 0.8125 10.875 C0.78736328 11.88820312 0.76222656 12.90140625 0.73632812 13.9453125 C0.59037025 29.12493145 6.21151715 36.98834592 16.4453125 47.74609375 C17.99750279 49.31754444 19.55760727 50.88121211 21.125 52.4375 C21.95539795 53.2629834 22.7857959 54.0884668 23.64135742 54.93896484 C37.94548884 68.97440291 54.06983487 80.03491743 72 89 C72.33 90.32 72.66 91.64 73 93 C70.36 93.99 67.72 94.98 65 96 C65.33 94.35 65.66 92.7 66 91 C65.319375 90.7525 64.63875 90.505 63.9375 90.25 C49.47783014 84.09694899 36.70470077 73.63271907 25.26171875 63.07421875 C23.21675333 61.19878414 21.12380525 59.40967467 19 57.625 C6.97140672 47.07871821 -2.93270566 35.59407317 -4.3125 19.3125 C-4.18620443 14.13438155 -3.71223707 3.71223707 0 0 Z " fill="#1E1515" transform="translate(128,175)"/>
<path d="M0 0 C2.475 0.495 2.475 0.495 5 1 C1.18904882 10.91090819 -3.19457603 20.57039198 -7.50927734 30.26855469 C-11.88070096 40.01203341 -11.88070096 40.01203341 -15.94140625 49.88671875 C-19.45236796 58.85075536 -23.60817394 67.56644664 -27.5793457 76.33325195 C-31.61654193 85.25369048 -35.58742506 94.14044831 -38.96313477 103.33642578 C-40.33233554 106.8537275 -42.03067162 110.15435685 -43.76171875 113.50390625 C-45.54026032 117.0890421 -47.01879209 120.78079217 -48.53125 124.484375 C-51.55186779 131.71457717 -54.79784277 138.84878038 -58 146 C-59.1738914 142.47832579 -58.82890621 141.93511856 -57.41796875 138.64453125 C-57.04333496 137.75717285 -56.66870117 136.86981445 -56.28271484 135.95556641 C-55.647771 134.49256104 -55.647771 134.49256104 -55 133 C-54.33218506 131.43064697 -54.33218506 131.43064697 -53.65087891 129.82958984 C-51.7134487 125.27900628 -49.76446905 120.73351892 -47.80273438 116.19335938 C-47.32771484 115.08154297 -46.85269531 113.96972656 -46.36328125 112.82421875 C-45.93313721 111.82479248 -45.50299316 110.82536621 -45.05981445 109.7956543 C-44.07129911 107.1880779 -43.45286353 104.74574013 -43 102 C-42.34 102 -41.68 102 -41 102 C-39.98459888 97.89776415 -39.98459888 97.89776415 -41 94 C-40.01 94 -39.02 94 -38 94 C-37.82549316 93.45762695 -37.65098633 92.91525391 -37.47119141 92.35644531 C-35.63388887 86.73490194 -33.58708082 81.23389754 -31.375 75.75 C-31.03235107 74.89591553 -30.68970215 74.04183105 -30.33666992 73.16186523 C-27.41420968 65.92457531 -24.35972975 58.74638372 -21.23388672 51.59472656 C-19.23958644 47.00608734 -17.36529547 42.39142926 -15.5859375 37.71484375 C-12.99135571 30.9047538 -10.17588778 24.20071699 -7.3125 17.5 C-6.34985146 15.23975747 -5.38759641 12.97934729 -4.42578125 10.71875 C-3.79796753 9.24825195 -3.79796753 9.24825195 -3.1574707 7.74804688 C-2.07441908 5.17668448 -1.02718217 2.59411533 0 0 Z " fill="#FAFAFA" transform="translate(202,272)"/>
<path d="M0 0 C0.66 0 1.32 0 2 0 C1.9685791 0.60360352 1.9371582 1.20720703 1.90478516 1.82910156 C1.21763782 17.03912228 1.8936815 27.1579581 12.1875 39.0625 C13.777754 40.72178005 15.38255018 42.3672189 17 44 C17.84691406 44.89589844 18.69382813 45.79179687 19.56640625 46.71484375 C31.51728649 59.11801349 45.14517577 67.82449809 59.82446289 76.62475586 C61.97339785 77.98318372 63.98859978 79.44676317 66 81 C65.01 81.495 65.01 81.495 64 82 C62.515 81.505 62.515 81.505 61 81 C61 80.34 61 79.68 61 79 C60.01 79 59.02 79 58 79 C58.33 80.32 58.66 81.64 59 83 C53.72502727 81.58633962 50.08481218 79.18635827 45.8125 75.9375 C45.15032471 75.44000244 44.48814941 74.94250488 43.8059082 74.42993164 C41.86343831 72.96243925 39.93139598 71.4820169 38 70 C37.07960937 69.3090625 36.15921875 68.618125 35.2109375 67.90625 C28.98337884 63.04759742 23.3700342 57.60293837 17.75 52.0625 C16.99291748 51.32314209 16.23583496 50.58378418 15.45581055 49.82202148 C2.95874315 37.30847262 -2.3441516 26.31715634 -2.38061523 8.72900391 C-2.26719581 2.26719581 -2.26719581 2.26719581 0 0 Z " fill="#180003" transform="translate(130,170)"/>
<path d="M0 0 C0.66 0 1.32 0 2 0 C2.474375 1.11375 2.94875 2.2275 3.4375 3.375 C6.29574107 9.10161774 10.60583664 13.41675905 15 18 C15.79857422 18.89332031 15.79857422 18.89332031 16.61328125 19.8046875 C26.63963485 30.6341857 40.05259774 38.229973 53 45 C53.6614502 45.34659668 54.32290039 45.69319336 55.00439453 46.05029297 C59.62849793 48.45437505 64.2960959 50.75647536 69 53 C69.64936523 53.31211426 70.29873047 53.62422852 70.96777344 53.94580078 C84.13589692 60.20868878 98.82147143 65.74162179 113.51953125 66.31640625 C114.54111328 66.35830078 115.56269531 66.40019531 116.61523438 66.44335938 C117.67033203 66.48267578 118.72542969 66.52199219 119.8125 66.5625 C121.42415039 66.62727539 121.42415039 66.62727539 123.06835938 66.69335938 C125.71212082 66.79910983 128.3559711 66.90120233 131 67 C128.45626588 69.54373412 126.76480368 69.28341732 123.28979492 69.32983398 C81.76822873 69.02386292 39.55608863 48.0186872 10.56225586 18.86547852 C0.15493569 8.11642077 0.15493569 8.11642077 -0.13671875 2.25 C-0.09160156 1.5075 -0.04648438 0.765 0 0 Z " fill="#8E1F3F" transform="translate(239,40)"/>
<path d="M0 0 C0.495 0.99 0.495 0.99 1 2 C0.23079406 3.66661288 -0.54400122 5.33269194 -1.40625 6.953125 C-2.2318371 9.11125294 -2.2318371 9.11125294 -1.19921875 11.70703125 C-0.88308941 16.93246328 -4.04620828 19.59307796 -7.3125 23.4375 C-8.6147898 25.03572009 -9.91292494 26.63733391 -11.20703125 28.2421875 C-12.17503662 29.43859863 -12.17503662 29.43859863 -13.16259766 30.65917969 C-15.79295756 34.01021487 -18.17273409 37.49662419 -20.5 41.0625 C-20.89920654 41.67351562 -21.29841309 42.28453125 -21.7097168 42.9140625 C-22.80990198 44.6071549 -23.90509014 46.30349132 -25 48 C-26.204981 49.81473042 -27.41276603 51.62760649 -28.625 53.4375 C-29.09164062 54.13746094 -29.55828125 54.83742187 -30.0390625 55.55859375 C-30.35617188 56.03425781 -30.67328125 56.50992188 -31 57 C-31.495 55.515 -31.495 55.515 -32 54 C-33.32 54 -34.64 54 -36 54 C-36 54.66 -36 55.32 -36 56 C-36.66 56 -37.32 56 -38 56 C-38.99 58.475 -38.99 58.475 -40 61 C-40.99 61 -41.98 61 -43 61 C-42.6690332 60.54375244 -42.33806641 60.08750488 -41.99707031 59.61743164 C-33.91502884 48.46916487 -25.91031587 37.27070421 -18 26 C-17.39913574 25.1445459 -16.79827148 24.2890918 -16.17919922 23.40771484 C-14.2849907 20.71010903 -12.3921811 18.01152823 -10.5 15.3125 C-9.91226807 14.47477051 -9.32453613 13.63704102 -8.71899414 12.77392578 C-5.76073421 8.54857376 -2.83865581 4.30668615 0 0 Z " fill="#A41E43" transform="translate(257,92)"/>
<path d="M0 0 C0 4.33809563 -2.51871816 6.81982216 -5 10.1875 C-10.95956189 18.43598453 -16.62030023 26.86054435 -22.21484375 35.36010742 C-26.03586535 41.14056517 -29.98848677 46.78931011 -34.08935547 52.37451172 C-36.95814419 56.31662185 -39.70043752 60.3408283 -42.4375 64.375 C-43.55439774 66.01452035 -44.67158689 67.65384222 -45.7890625 69.29296875 C-46.59972168 70.482854 -46.59972168 70.482854 -47.42675781 71.69677734 C-50.92393736 76.81663952 -54.4622137 81.90814736 -58 87 C-58.33 86.34 -58.66 85.68 -59 85 C-57.85624273 82.43810703 -56.64906457 80.02295635 -55.3125 77.5625 C-54.70607666 76.4343689 -54.70607666 76.4343689 -54.08740234 75.28344727 C-40.68905529 50.75855888 -24.18988177 28.15036332 -6 7 C-4.99646484 5.82630859 -4.99646484 5.82630859 -3.97265625 4.62890625 C-2.65119564 3.08357466 -1.32620332 1.54126332 0 0 Z " fill="#FCE9F0" transform="translate(269,91)"/>
<path d="M0 0 C4.08086098 1.7589918 8.08646006 3.49407631 11.9765625 5.6484375 C32.14811641 16.67298606 53.57985729 16.89280704 76 17 C75.67 17.66 75.34 18.32 75 19 C74.34 19 73.68 19 73 19 C73 19.66 73 20.32 73 21 C49.30070655 25.76328468 25.39501682 19.97337695 5.23828125 7.2578125 C1.40919502 4.57143787 1.40919502 4.57143787 0 3 C0 2.01 0 1.02 0 0 Z " fill="#1C0004" transform="translate(224,218)"/>
<path d="M0 0 C0.66 0.66 1.32 1.32 2 2 C1.21625 2.804375 0.4325 3.60875 -0.375 4.4375 C-2.54653623 7.01258942 -3.30444211 8.79827407 -3.7578125 12.1171875 C-4.93712454 17.9339046 -8.00996635 21.98893593 -11.5 26.6875 C-12.4439563 27.99569702 -12.4439563 27.99569702 -13.40698242 29.33032227 C-14.67331577 31.08332237 -15.94559703 32.83204293 -17.22412109 34.57617188 C-19.6169716 37.84208057 -21.96463084 41.13921264 -24.3125 44.4375 C-25.09765612 45.53255217 -25.88281237 46.62760426 -26.66796875 47.72265625 C-30.51079736 53.1026163 -34.25375339 58.55255928 -38 64 C-39.32 63.67 -40.64 63.34 -42 63 C-42.99 64.32 -43.98 65.64 -45 67 C-45.66 66.67 -46.32 66.34 -47 66 C-46.29617187 65.07703125 -45.59234375 64.1540625 -44.8671875 63.203125 C-37.26208794 53.17620225 -29.98812187 42.94608748 -22.81298828 32.60839844 C-19.74126793 28.18902593 -16.65089974 23.78272421 -13.5625 19.375 C-12.45954942 17.79953937 -11.35668201 16.22402051 -10.25390625 14.6484375 C-6.8359375 9.765625 -3.41796875 4.8828125 0 0 Z " fill="#1E1616" transform="translate(259,81)"/>
<path d="M0 0 C0 0.33 0 0.66 0 1 C-5.07384407 1.17199471 -9.63525545 0.94096112 -14.625 0 C-31.10813088 -2.67923682 -48.12410378 -3.03511909 -62.4375 6.375 C-68.61737307 11.02226455 -72.34689768 16.2349957 -76 23 C-77.1875 21.4375 -77.1875 21.4375 -78 19 C-75.34897463 9.6330437 -67.84162297 4.40327688 -59.83984375 -0.4921875 C-41.1706752 -10.40456585 -19.1886907 -5.73221481 0 0 Z " fill="#372427" transform="translate(210,147)"/>
<path d="M0 0 C0.33 0 0.66 0 1 0 C0.98428955 0.64437012 0.9685791 1.28874023 0.95239258 1.95263672 C0.88929099 4.92666529 0.85077414 7.90055229 0.8125 10.875 C0.78736328 11.88820312 0.76222656 12.90140625 0.73632812 13.9453125 C0.65188414 22.72748696 1.6080562 31.03443873 7.5 37.9375 C8.1909375 38.74832031 8.881875 39.55914062 9.59375 40.39453125 C13.91856831 45.07741082 18.41810013 49.56970712 23 54 C22.01 54.495 22.01 54.495 21 55 C20.34786708 57.02463255 20.34786708 57.02463255 20 59 C8.1443216 47.46864107 -2.69084545 36.3097379 -4.375 19.1875 C-4.1702038 14.03525866 -3.68345789 3.68345789 0 0 Z " fill="#2B1F20" transform="translate(128,175)"/>
<path d="M0 0 C-0.99 1.65 -1.98 3.3 -3 5 C-8.35751058 3.44099122 -13.67166838 1.79322933 -18.953125 -0.0078125 C-35.09940001 -5.536476 -35.09940001 -5.536476 -52 -7 C-52.33 -7.99 -52.66 -8.98 -53 -10 C-36.62293236 -15.45902255 -15.35537123 -5.13840097 0 0 Z " fill="#1C1113" transform="translate(318,11)"/>
<path d="M0 0 C1.65 0 3.3 0 5 0 C5.33 0.66 5.66 1.32 6 2 C8.07648314 2.21004887 10.16377514 2.31526228 12.25 2.375 C19.63408816 2.77680357 26.06348051 4.52267161 33 7 C33 7.33 33 7.66 33 8 C30.69 8 28.38 8 26 8 C26 8.66 26 9.32 26 10 C26.99 10.33 27.98 10.66 29 11 C28.34 11.33 27.68 11.66 27 12 C26.29488281 11.69578125 25.58976562 11.3915625 24.86328125 11.078125 C21.27235254 9.72601542 17.96803122 9.70048883 14.1875 9.75 C13.47916016 9.75386719 12.77082031 9.75773438 12.04101562 9.76171875 C7.04273155 9.84448702 2.72607773 10.42464076 -2 12 C-2 10.68 -2 9.36 -2 8 C-2.99 8.66 -3.98 9.32 -5 10 C-6.32 10 -7.64 10 -9 10 C-9.66 11.32 -10.32 12.64 -11 14 C-11.66 14 -12.32 14 -13 14 C-11.16062956 9.89678902 -9.4951321 7.64695296 -5.30078125 5.83203125 C-4.31464844 5.49558594 -3.32851563 5.15914063 -2.3125 4.8125 C-0.82169922 4.29623047 -0.82169922 4.29623047 0.69921875 3.76953125 C1.45847656 3.51558594 2.21773438 3.26164063 3 3 C2.01 2.01 1.02 1.02 0 0 Z " fill="#AC183F" transform="translate(260,1)"/>
<path d="M0 0 C0.66 0.33 1.32 0.66 2 1 C-9.90604149 10.96784869 -26.08088031 11.81625456 -41 11 C-45.04386275 10.50996394 -49.01587639 9.84511713 -53 9 C-49.28462775 6.52308517 -47.31182149 6.73358031 -42.875 6.69140625 C-41.43098617 6.66621057 -39.98697585 6.64081316 -38.54296875 6.61523438 C-36.28337844 6.58672757 -34.02385045 6.56270053 -31.76416016 6.54370117 C-20.20874125 6.42771362 -10.43063225 5.34904218 0 0 Z " fill="#981D40" transform="translate(345,289)"/>
<path d="M0 0 C1.5149707 -0.00386719 1.5149707 -0.00386719 3.06054688 -0.0078125 C4.64125977 0.00378906 4.64125977 0.00378906 6.25390625 0.015625 C7.30384766 0.00789062 8.35378906 0.00015625 9.43554688 -0.0078125 C10.44681641 -0.00523437 11.45808594 -0.00265625 12.5 0 C13.42353271 0.00225586 14.34706543 0.00451172 15.29858398 0.00683594 C17.91894657 0.27616439 19.56373461 0.93730391 21.81640625 2.265625 C20.82640625 2.265625 19.83640625 2.265625 18.81640625 2.265625 C19.32244617 4.43436752 19.81624438 6.26530127 20.81640625 8.265625 C19.95015625 8.100625 19.08390625 7.935625 18.19140625 7.765625 C10.16865325 6.61717365 1.76508983 6.74121993 -6.18359375 8.265625 C-4.66424669 5.22693089 -2.20354603 4.62152194 0.81640625 3.265625 C1.47640625 3.265625 2.13640625 3.265625 2.81640625 3.265625 C2.81640625 2.605625 2.81640625 1.945625 2.81640625 1.265625 C1.82640625 1.595625 0.83640625 1.925625 -0.18359375 2.265625 C-1.57799039 2.33227876 -2.9752925 2.35100699 -4.37109375 2.328125 C-6.25828125 2.2971875 -6.25828125 2.2971875 -8.18359375 2.265625 C-4.88297519 0.06521262 -3.83924437 0.00938937 0 0 Z " fill="#A01E41" transform="translate(170.18359375,144.734375)"/>
<path d="M0 0 C0.99 0 1.98 0 3 0 C3 1.65 3 3.3 3 5 C3.66 5 4.32 5 5 5 C5.90234375 7.5703125 5.90234375 7.5703125 6 11 C4.22426181 13.67848777 1.93410671 15.72474325 -0.4375 17.875 C-1.06205078 18.46796875 -1.68660156 19.0609375 -2.33007812 19.671875 C-3.87145074 21.13088419 -5.4337968 22.56767849 -7 24 C-8.20171204 20.39486388 -7.70719075 19.56440728 -6.34765625 16.11328125 C-5.98349609 15.17548828 -5.61933594 14.23769531 -5.24414062 13.27148438 C-4.65922852 11.80678711 -4.65922852 11.80678711 -4.0625 10.3125 C-3.67642578 9.32443359 -3.29035156 8.33636719 -2.89257812 7.31835938 C-1.93667875 4.87550541 -0.97221707 2.43639559 0 0 Z " fill="#DBDBDB" transform="translate(118,462)"/>
<path d="M0 0 C-0.21875 1.859375 -0.21875 1.859375 -1 4 C-2.96875 5.203125 -2.96875 5.203125 -5.5 6.25 C-14.77131348 10.60048758 -20.72931361 16.72896221 -25 26 C-26.05859375 24.20703125 -26.05859375 24.20703125 -27 22 C-24.05788095 11.6045127 -14.97848667 6.06112147 -6 1 C-3 0 -3 0 0 0 Z " fill="#281B1C" transform="translate(159,144)"/>
<path d="M0 0 C5.00107948 0.57557181 9.38816743 1.68692792 14.125 3.375 C28.81014512 8.37343103 42.54436276 9.64148785 58 10 C55.45626588 12.54373412 53.76480368 12.28341732 50.28979492 12.32983398 C32.30974674 12.1973396 16.88403997 8.05896119 0 2 C0 1.34 0 0.68 0 0 Z " fill="#752039" transform="translate(312,97)"/>
<path d="M0 0 C0 0.99 0 1.98 0 3 C-0.80824219 3.21914062 -1.61648438 3.43828125 -2.44921875 3.6640625 C-9.19212872 5.66497426 -13.12548264 7.05907338 -17 13 C-19.22189824 15.22189824 -21.08482708 15.92598892 -24 17 C-21.23029474 9.15250176 -17.29495249 4.75982151 -10 1 C-6.52674819 -0.1577506 -3.63932552 -0.06866652 0 0 Z " fill="#231E1D" transform="translate(264,2)"/>
<path d="M0 0 C0 0.33 0 0.66 0 1 C-10.00887894 1.62277469 -19.96588331 2.17707265 -30 2 C-23.39193344 -6.0765258 -8.23168662 -4.70382093 0 0 Z " fill="#FCE0EA" transform="translate(191,154)"/>
<path d="M0 0 C1.65 0 3.3 0 5 0 C5.33 0.66 5.66 1.32 6 2 C8.07648314 2.21004887 10.16377514 2.31526228 12.25 2.375 C19.63408816 2.77680357 26.06348051 4.52267161 33 7 C33 7.33 33 7.66 33 8 C30.69 8 28.38 8 26 8 C26 8.66 26 9.32 26 10 C26.99 10.33 27.98 10.66 29 11 C28.01 11.495 28.01 11.495 27 12 C26.00419922 11.53980469 26.00419922 11.53980469 24.98828125 11.0703125 C20.71066375 9.53819852 16.69173359 9.78766959 12.1875 9.875 C10.86202148 9.88853516 10.86202148 9.88853516 9.50976562 9.90234375 C7.33972641 9.92580363 5.16982753 9.96167135 3 10 C3.33 9.34 3.66 8.68 4 8 C10.27 7.67 16.54 7.34 23 7 C23 6.34 23 5.68 23 5 C9.96563552 4.82498702 9.96563552 4.82498702 -3 6 C-1 4.66666667 1 3.33333333 3 2 C2.01 1.34 1.02 0.68 0 0 Z " fill="#9B2B4A" transform="translate(260,1)"/>
<path d="M0 0 C0.68642578 -0.020625 1.37285156 -0.04125 2.08007812 -0.0625 C7.16475127 -0.10098381 10.63393883 0.98810033 15.1875 3.25 C15.1875 3.58 15.1875 3.91 15.1875 4.25 C5.2875 4.25 -4.6125 4.25 -14.8125 4.25 C-10.23885475 -0.32364525 -6.26055499 0.04624602 0 0 Z " fill="#FEF5FA" transform="translate(273.8125,9.75)"/>
<path d="M0 0 C1.65708984 0.81791016 1.65708984 0.81791016 3.34765625 1.65234375 C15.24805477 7.44638511 27.35092915 12.42771027 39.73608398 17.08959961 C41.89067463 17.95603642 43.94007316 18.93001937 46 20 C42.61866798 21.12711067 42.10031933 20.92485372 38.921875 19.69921875 C38.10098389 19.38597656 37.28009277 19.07273437 36.43432617 18.75 C35.54849854 18.399375 34.6626709 18.04875 33.75 17.6875 C32.37968628 17.15576172 32.37968628 17.15576172 30.98168945 16.61328125 C20.1943646 12.37615374 9.58750315 7.71007967 -1 3 C-0.67 2.01 -0.34 1.02 0 0 Z " fill="#6E2238" transform="translate(214,268)"/>
<path d="M0 0 C0.66 0.66 1.32 1.32 2 2 C1.21625 2.804375 0.4325 3.60875 -0.375 4.4375 C-3.15416834 7.72553015 -3.88355056 10.75357997 -4.54296875 14.94921875 C-5 17 -5 17 -7 20 C-7.99 20.33 -8.98 20.66 -10 21 C-10.474375 21.474375 -10.94875 21.94875 -11.4375 22.4375 C-13.15372082 24.15372082 -14.79852582 25.01313226 -17 26 C-15.42281227 21.16638349 -12.65644748 17.56321293 -9.625 13.5625 C-6.28805232 9.11472348 -3.03835075 4.65832449 0 0 Z " fill="#241D1E" transform="translate(259,81)"/>
<path d="M0 0 C0 3.40798081 -0.50205914 4.06107782 -2.44921875 6.73046875 C-2.96806641 7.45169922 -3.48691406 8.17292969 -4.02148438 8.91601562 C-4.57126953 9.66560547 -5.12105469 10.41519531 -5.6875 11.1875 C-9.67376246 16.6752708 -13.48627284 22.19561006 -17 28 C-17.33 27.01 -17.66 26.02 -18 25 C-18.66 24.67 -19.32 24.34 -20 24 C-13.56990091 15.79216763 -6.81782001 7.88594514 0 0 Z " fill="#FBE3ED" transform="translate(269,91)"/>
<path d="M0 0 C0.33 0 0.66 0 1 0 C1.31042285 9.80706267 1.39925415 18.63181742 -2 28 C-2.33 28 -2.66 28 -3 28 C-5.32101087 18.71595654 -3.38200258 10.09604095 -1 1 C-0.67 0.67 -0.34 0.34 0 0 Z " fill="#2B2B2B" transform="translate(128,175)"/>
<path d="M0 0 C0 3.73020115 -1.22116277 5.57155564 -2.9375 8.875 C-7.05554223 17.54711247 -7.02807223 25.58176811 -7 35 C-9 33 -9 33 -9.23046875 29.26171875 C-9.22647364 27.73691713 -9.21170023 26.2121148 -9.1875 24.6875 C-9.18685547 23.92759766 -9.18621094 23.16769531 -9.18554688 22.38476562 C-9.1548959 18.46484685 -8.95469922 14.82643447 -8 11 C-8.99 11.33 -9.98 11.66 -11 12 C-10.34 10.02 -9.68 8.04 -9 6 C-8.01 6 -7.02 6 -6 6 C-6 6.99 -6 7.98 -6 9 C-3.03 4.545 -3.03 4.545 0 0 Z " fill="#8F1D3C" transform="translate(140,159)"/>
<path d="M0 0 C1.56717267 2.90663649 2.53102979 5.68777132 3.375 8.875 C4.63919028 13.2575263 6.24278835 16.38710198 9 20 C7.02 20 5.04 20 3 20 C-1.24982501 13.62526248 -1.77388492 9.64330953 -0.5 2 C-0.335 1.34 -0.17 0.68 0 0 Z " fill="#291C1D" transform="translate(127,194)"/>
<path d="M0 0 C0.66 0 1.32 0 2 0 C1.68071984 6.78470345 0.28905237 13.07507009 -1.55541992 19.58544922 C-2.49939453 22.96029861 -3.25574038 26.19566181 -3.5625 29.6875 C-4.01232789 33.09333971 -4.65200324 34.54991642 -7 37 C-6.31137469 28.9892828 -4.66689417 21.28196777 -2.9375 13.4375 C-2.652578 12.12964802 -2.36806969 10.82170585 -2.08398438 9.51367188 C-1.39337262 6.3415399 -0.69861189 3.1703779 0 0 Z " fill="#280208" transform="translate(317,156)"/>
<path d="M0 0 C0.68320312 0.144375 1.36640625 0.28875 2.0703125 0.4375 C9.49374397 1.80447459 16.65043094 2.19258832 24.1875 2.1875 C25.55769287 2.1884668 25.55769287 2.1884668 26.95556641 2.18945312 C33.01954764 2.14142159 38.97815529 1.7068733 45 1 C39.12138495 4.9190767 33.47051098 4.1860554 26.61669922 4.18530273 C24.40442138 4.18747116 22.19265712 4.20557714 19.98046875 4.22460938 C13.07334511 4.25132201 6.62653517 4.20014882 0 2 C0 1.34 0 0.68 0 0 Z " fill="#8E1D3D" transform="translate(256,237)"/>
<path d="M0 0 C7.75 0.75 7.75 0.75 10 3 C8.5645497 4.77249524 7.12656197 6.54293576 5.6875 8.3125 C4.88699219 9.29863281 4.08648437 10.28476563 3.26171875 11.30078125 C1 14 1 14 -2 17 C-1.34 13.37 -0.68 9.74 0 6 C0.99 6.33 1.98 6.66 3 7 C3.33 5.68 3.66 4.36 4 3 C2.68 2.01 1.36 1.02 0 0 Z " fill="#991B3F" transform="translate(200,149)"/>
<path d="M0 0 C2.05078125 0.03255208 4.1015625 0.06510417 6.15234375 0.09765625 C4.30005503 2.60369393 3.22823411 3.08279113 0.12109375 3.69140625 C-4.37545826 4.15168323 -8.77043925 4.20744982 -13.28515625 4.16015625 C-14.11208984 4.15564453 -14.93902344 4.15113281 -15.79101562 4.14648438 C-17.80992771 4.13481436 -19.82880199 4.11688343 -21.84765625 4.09765625 C-21.84765625 3.43765625 -21.84765625 2.77765625 -21.84765625 2.09765625 C-21.27732666 2.0726001 -20.70699707 2.04754395 -20.11938477 2.02172852 C-17.54939468 1.90609076 -14.97980098 1.78322001 -12.41015625 1.66015625 C-11.51232422 1.62083984 -10.61449219 1.58152344 -9.68945312 1.54101562 C-8.83544922 1.49912109 -7.98144531 1.45722656 -7.1015625 1.4140625 C-6.31080322 1.37740479 -5.52004395 1.34074707 -4.70532227 1.30297852 C-2.47983631 1.05700221 -2.23647333 0.11820684 0 0 Z " fill="#030000" transform="translate(293.84765625,234.90234375)"/>
<path d="M0 0 C1.18220666 3.54661998 0.73665347 4.96112524 -0.14453125 8.55078125 C-0.40943359 9.64197266 -0.67433594 10.73316406 -0.94726562 11.85742188 C-1.23279297 12.99759766 -1.51832031 14.13777344 -1.8125 15.3125 C-2.08642578 16.44107422 -2.36035156 17.56964844 -2.64257812 18.73242188 C-3.91170209 23.90326506 -5.26792659 28.96196427 -7 34 C-7.33 34 -7.66 34 -8 34 C-7.65526523 27.64023778 -6.90109167 22.03564191 -4.6875 16.0546875 C-3.85581831 13.77935344 -3.85581831 13.77935344 -3.5 10.375 C-2.91789587 6.44579714 -1.68149566 3.58231684 0 0 Z " fill="#901E3E" transform="translate(326,118)"/>
<path d="M0 0 C0.33 0.99 0.66 1.98 1 3 C-0.50312013 5.46180305 -2.02654574 7.70206099 -3.75 10 C-4.20632812 10.6290625 -4.66265625 11.258125 -5.1328125 11.90625 C-7.2678249 14.81875247 -9.39735815 17.48632118 -12 20 C-10.61178082 15.44857493 -8.79464421 11.38777137 -6.5625 7.1875 C-5.96566406 6.04667969 -5.36882812 4.90585938 -4.75390625 3.73046875 C-3 1 -3 1 0 0 Z " fill="#FBDFE9" transform="translate(222,158)"/>
<path d="M0 0 C0.66 0.33 1.32 0.66 2 1 C-4.93111949 6.80279771 -13.84060488 10.45967225 -23 10 C-19.3881133 6.76533384 -15.49443655 5.73772402 -10.9375 4.4375 C-5.22482416 2.80413651 -5.22482416 2.80413651 0 0 Z " fill="#89223F" transform="translate(345,289)"/>
<path d="M0 0 C0.66 0.33 1.32 0.66 2 1 C-0.97 5.29 -3.94 9.58 -7 14 C-7.99 12.68 -8.98 11.36 -10 10 C-8.52861945 6.12090583 -6.54638875 4.98943759 -3 3 C-1.24850835 1.41754725 -1.24850835 1.41754725 0 0 Z " fill="#150A0C" transform="translate(249,101)"/>
<path d="M0 0 C0.33 1.32 0.66 2.64 1 4 C-0.65 4.66 -2.3 5.32 -4 6 C-4 4.68 -4 3.36 -4 2 C-4.99 2.66 -5.98 3.32 -7 4 C-8.32 4 -9.64 4 -11 4 C-11.66 5.32 -12.32 6.64 -13 8 C-13.66 8 -14.32 8 -15 8 C-13.70989008 5.12206249 -12.42638194 3.03816083 -10 1 C-6.52674819 -0.1577506 -3.63932552 -0.06866652 0 0 Z " fill="#9A1B40" transform="translate(262,7)"/>
<path d="M0 0 C0.33 0.99 0.66 1.98 1 3 C-0.9375 6.1875 -0.9375 6.1875 -3 9 C-2.34 9 -1.68 9 -1 9 C-0.67 8.34 -0.34 7.68 0 7 C0.66 7.33 1.32 7.66 2 8 C1.34 9.65 0.68 11.3 0 13 C-0.33 12.01 -0.66 11.02 -1 10 C-2.32 10 -3.64 10 -5 10 C-5 10.66 -5 11.32 -5 12 C-5.66 12 -6.32 12 -7 12 C-7.66 13.65 -8.32 15.3 -9 17 C-9.99 17 -10.98 17 -12 17 C-8.04 11.39 -4.08 5.78 0 0 Z " fill="#931E3F" transform="translate(226,136)"/>
<path d="M0 0 C1.47445263 2.94890526 0.68421874 5.04763117 -0.12109375 8.15625 C-1 10 -1 10 -4.125 11.5 C-5.07375 11.665 -6.0225 11.83 -7 12 C-7 13.32 -7 14.64 -7 16 C-7.99 16 -8.98 16 -10 16 C-8.55797524 11.84848662 -6.4989562 8.70021555 -3.875 5.1875 C-3.15054688 4.21167969 -2.42609375 3.23585938 -1.6796875 2.23046875 C-0.84824219 1.12638672 -0.84824219 1.12638672 0 0 Z " fill="#A6274A" transform="translate(253,116)"/>
<path d="M0 0 C-1.36370299 2.99220268 -2.94908083 5.29026529 -5.125 7.75 C-5.93324219 8.67039062 -5.93324219 8.67039062 -6.7578125 9.609375 C-7.16773438 10.06828125 -7.57765625 10.5271875 -8 11 C-10 8 -10 8 -11 5 C-9.68 4.67 -8.36 4.34 -7 4 C-7 3.34 -7 2.68 -7 2 C-4 0 -4 0 0 0 Z " fill="#A92449" transform="translate(265,95)"/>
<path d="M0 0 C2.31 0 4.62 0 7 0 C7 0.99 7 1.98 7 3 C6.15695312 3.27714844 5.31390625 3.55429688 4.4453125 3.83984375 C2.80175781 4.38318359 2.80175781 4.38318359 1.125 4.9375 C0.03445313 5.29714844 -1.05609375 5.65679688 -2.1796875 6.02734375 C-4.90758682 6.89914074 -4.90758682 6.89914074 -7 8 C-7 7.01 -7 6.02 -7 5 C-4 3 -4 3 -1 3 C-0.67 2.01 -0.34 1.02 0 0 Z " fill="#190103" transform="translate(257,2)"/>
<path d="M0 0 C0.75732422 0.04833984 1.51464844 0.09667969 2.29492188 0.14648438 C3.08060547 0.20255859 3.86628906 0.25863281 4.67578125 0.31640625 C5.47306641 0.36861328 6.27035156 0.42082031 7.09179688 0.47460938 C9.05764647 0.60409647 11.0230179 0.74080666 12.98828125 0.87890625 C9.14668365 3.44671096 5.17436375 3.10579507 0.73828125 3.00390625 C-0.00679688 2.99488281 -0.751875 2.98585937 -1.51953125 2.9765625 C-3.35039934 2.95308983 -5.18110113 2.9172215 -7.01171875 2.87890625 C-7.01171875 2.21890625 -7.01171875 1.55890625 -7.01171875 0.87890625 C-4.18726283 -0.06257906 -2.87000257 -0.1942107 0 0 Z " fill="#1F1B1F" transform="translate(272.01171875,0.12109375)"/>
<path d="M0 0 C2.97 0.33 5.94 0.66 9 1 C9 1.66 9 2.32 9 3 C15.88824069 5.40990104 15.88824069 5.40990104 23 7 C22.67 7.66 22.34 8.32 22 9 C14.39162534 6.92957946 7.2271408 4.14169523 0 1 C0 0.67 0 0.34 0 0 Z " fill="#8F1C3D" transform="translate(228,266)"/>
<path d="M0 0 C3.3 0.33 6.6 0.66 10 1 C10 1.66 10 2.32 10 3 C10.99 3 11.98 3 13 3 C13.33 4.65 13.66 6.3 14 8 C8.76481294 6.56032356 4.36973991 4.18303389 0 1 C0 0.67 0 0.34 0 0 Z " fill="#991C3D" transform="translate(184,243)"/>
<path d="M0 0 C0.33 0.66 0.66 1.32 1 2 C0.505 3.093125 0.01 4.18625 -0.5 5.3125 C-2.01062522 9.02612034 -2.23169905 10.30490286 -1 14 C-1.66 14 -2.32 14 -3 14 C-3 13.34 -3 12.68 -3 12 C-6.12197478 13.3089572 -6.12197478 13.3089572 -8 16 C-8.66 15.67 -9.32 15.34 -10 15 C-5.05 7.575 -5.05 7.575 0 0 Z " fill="#981B3E" transform="translate(257,92)"/>
<path d="M0 0 C0.66 0 1.32 0 2 0 C0.53025751 5.73199571 -2.44486902 10.33583399 -6 15 C-6.33 15 -6.66 15 -7 15 C-7.612002 11.59027458 -7.34004216 9.54888695 -5.51171875 6.59765625 C-3.75190844 4.29132099 -2.03347666 2.07028166 0 0 Z " fill="#190104" transform="translate(262,80)"/>
<path d="M0 0 C2.2421875 -0.36328125 2.2421875 -0.36328125 4.875 -0.3125 C6.17050781 -0.30669922 6.17050781 -0.30669922 7.4921875 -0.30078125 C10.0852226 0.0102214 11.75999753 0.69246367 14 2 C14 2.33 14 2.66 14 3 C8.72 3 3.44 3 -2 3 C-1.34 2.01 -0.68 1.02 0 0 Z " fill="#FEE2F1" transform="translate(177,152)"/>
<path d="M0 0 C0.71994141 -0.01224609 1.43988281 -0.02449219 2.18164062 -0.03710938 C5.9801247 -0.04769011 7.70116518 0.02994345 10.9375 2.1875 C4.6675 2.1875 -1.6025 2.1875 -8.0625 2.1875 C-8.0625 2.8475 -8.0625 3.5075 -8.0625 4.1875 C-10.3725 4.1875 -12.6825 4.1875 -15.0625 4.1875 C-10.91930196 -0.57717774 -5.97275653 0.00537602 0 0 Z " fill="#F7DAE6" transform="translate(274.0625,9.8125)"/>
<path d="M0 0 C-1 2 -1 2 -3.04296875 3.1171875 C-6.82802707 4.24720491 -10.40553058 4.21577856 -14.3125 4.125 C-15.05306641 4.11597656 -15.79363281 4.10695313 -16.55664062 4.09765625 C-18.37123467 4.07424213 -20.18566071 4.03837615 -22 4 C-22 3.67 -22 3.34 -22 3 C-20.78763672 2.80083984 -20.78763672 2.80083984 -19.55078125 2.59765625 C-18.48214844 2.42105469 -17.41351563 2.24445313 -16.3125 2.0625 C-15.25675781 1.88847656 -14.20101563 1.71445312 -13.11328125 1.53515625 C-11.16373126 1.20003913 -9.21836687 0.8382828 -7.28125 0.4375 C-4.80814498 -0.03679411 -2.5121562 -0.07177589 0 0 Z " fill="#8D193A" transform="translate(326,296)"/>
<path d="M0 0 C0.33 0.66 0.66 1.32 1 2 C2.65 2 4.3 2 6 2 C3.48300155 4.51699845 1.42445854 5.10964078 -2 6 C-4.375 5.625 -4.375 5.625 -6 5 C-5.34 4.67 -4.68 4.34 -4 4 C-6.31 3.67 -8.62 3.34 -11 3 C-11 2.67 -11 2.34 -11 2 C-9.5422647 1.664061 -8.08378894 1.33133376 -6.625 1 C-5.40683594 0.7215625 -5.40683594 0.7215625 -4.1640625 0.4375 C-2 0 -2 0 0 0 Z " fill="#1D0104" transform="translate(303,232)"/>
<path d="M0 0 C0.99 0.33 1.98 0.66 3 1 C2.34 2.32 1.68 3.64 1 5 C0.01 5 -0.98 5 -2 5 C-2 5.99 -2 6.98 -2 8 C-2.66 8 -3.32 8 -4 8 C-4 8.66 -4 9.32 -4 10 C-4.66 10 -5.32 10 -6 10 C-5.58578031 5.16743695 -3.53586014 3.17320782 0 0 Z " fill="#070100" transform="translate(217,143)"/>
<path d="M0 0 C0.66 0 1.32 0 2 0 C2.33 1.98 2.66 3.96 3 6 C1.02253397 6.73080266 -0.98072489 7.39421747 -3 8 C-3.66 7.67 -4.32 7.34 -5 7 C-4.21654285 5.82780457 -3.42297164 4.66236332 -2.625 3.5 C-2.18414062 2.8503125 -1.74328125 2.200625 -1.2890625 1.53125 C-0.65097656 0.77328125 -0.65097656 0.77328125 0 0 Z " fill="#262022" transform="translate(238,111)"/>
<path d="M0 0 C2.64 0.33 5.28 0.66 8 1 C8 2.98 8 4.96 8 7 C8.66 7 9.32 7 10 7 C9.67 7.66 9.34 8.32 9 9 C7.68412059 7.87895467 6.37239647 6.75303035 5.0625 5.625 C4.33160156 4.99851563 3.60070312 4.37203125 2.84765625 3.7265625 C1 2 1 2 0 0 Z " fill="#9B1C40" transform="translate(151,218)"/>
<path d="M0 0 C1 2 1 2 0.5 3.9375 C-0.23602403 6.17665424 -0.23602403 6.17665424 1 9 C-0.32 9 -1.64 9 -3 9 C-3.99 9.66 -4.98 10.32 -6 11 C-5.55530671 5.96014269 -3.28656638 3.62365012 0 0 Z " fill="#981C3F" transform="translate(200,172)"/>
<path d="M0 0 C0.33 0.66 0.66 1.32 1 2 C-0.43775696 5.21783702 -2.04417512 8.06626269 -4 11 C-4.66 11 -5.32 11 -6 11 C-6.33 12.32 -6.66 13.64 -7 15 C-7.66 15 -8.32 15 -9 15 C-7.61219205 11.10993227 -5.7847773 8.03441292 -3.375 4.6875 C-2.74335938 3.80449219 -2.11171875 2.92148438 -1.4609375 2.01171875 C-0.97882813 1.34785156 -0.49671875 0.68398437 0 0 Z " fill="#9F2B4C" transform="translate(237,139)"/>
<path d="M0 0 C1.65 0 3.3 0 5 0 C5.33 0.66 5.66 1.32 6 2 C7.89533342 2.46523063 7.89533342 2.46523063 10.0625 2.625 C11.361875 2.74875 12.66125 2.8725 14 3 C14 3.33 14 3.66 14 4 C2.47835991 6.29612756 2.47835991 6.29612756 -3 6 C-1 4.66666667 1 3.33333333 3 2 C2.01 1.34 1.02 0.68 0 0 Z " fill="#78293E" transform="translate(260,1)"/>
<path d="M0 0 C0.66 0.66 1.32 1.32 2 2 C-0.64 4.64 -3.28 7.28 -6 10 C-7 7 -7 7 -6 4 C-4.04402816 2.60287726 -2.04563599 1.26220093 0 0 Z " fill="#D2D2D2" transform="translate(117,476)"/>
<path d="M0 0 C1.8272911 2.74093665 2.93698178 5.13825324 4.125 8.1875 C4.47820312 9.08855469 4.83140625 9.98960937 5.1953125 10.91796875 C5.46085938 11.60503906 5.72640625 12.29210937 6 13 C5.01 13.66 4.02 14.32 3 15 C2.491217 13.44033782 1.99336531 11.87710759 1.5 10.3125 C1.2215625 9.44238281 0.943125 8.57226562 0.65625 7.67578125 C0.00149195 5.00608323 -0.11831495 2.73603316 0 0 Z " fill="#791F3B" transform="translate(128,193)"/>
<path d="M0 0 C1.32 0.66 2.64 1.32 4 2 C2.35 4.97 0.7 7.94 -1 11 C-1.66 9.68 -2.32 8.36 -3 7 C-1.625 3.25 -1.625 3.25 0 0 Z " fill="#261214" transform="translate(135,159)"/>
<path d="M0 0 C1.58467728 0.28427417 3.1677057 0.57774818 4.75 0.875 C6.07257813 1.11863281 6.07257813 1.11863281 7.421875 1.3671875 C9.86947744 1.96796264 11.80599857 2.77997117 14 4 C8.5610835 4.21755666 4.12919186 4.10428384 -1 2 C-0.67 1.34 -0.34 0.68 0 0 Z " fill="#343030" transform="translate(196,144)"/>
<path d="M0 0 C2.86724686 0.57344937 3.8614515 0.8614515 6 3 C5.0925 3.185625 4.185 3.37125 3.25 3.5625 C-1.208036 5.53432362 -1.91981256 7.67961071 -4 12 C-4.66 12 -5.32 12 -6 12 C-4.43358249 7.69235185 -2.31663844 3.93828536 0 0 Z " fill="#931E3F" transform="translate(264,80)"/>
<path d="M0 0 C0.66 0 1.32 0 2 0 C2.67408308 1.26691507 3.33900497 2.53870749 4 3.8125 C4.556875 4.87404297 4.556875 4.87404297 5.125 5.95703125 C6 8 6 8 6 11 C3 10 3 10 1.3125 7.75 C-0.06511203 4.8635748 -0.26985151 3.14826764 0 0 Z " fill="#771F38" transform="translate(239,40)"/>
<path d="M0 0 C3.16115776 1.36983503 3.9927092 1.9890638 6 5 C5.34 5 4.68 5 4 5 C3.67 6.32 3.34 7.64 3 9 C0.11749016 6.61879622 -0.61038985 4.70129644 -1 1 C-0.67 0.67 -0.34 0.34 0 0 Z " fill="#382428" transform="translate(145,225)"/>
<path d="M0 0 C0 3.78405089 -1.1678033 5.11032647 -3.3125 8.1875 C-3.92738281 9.08855469 -4.54226563 9.98960938 -5.17578125 10.91796875 C-5.77777344 11.60503906 -6.37976563 12.29210937 -7 13 C-7.99 13 -8.98 13 -10 13 C-8.48446596 9.52224821 -6.4226544 7.0442016 -3.875 4.25 C-3.15054687 3.45078125 -2.42609375 2.6515625 -1.6796875 1.828125 C-0.84824219 0.92320313 -0.84824219 0.92320313 0 0 Z " fill="#F7BFD3" transform="translate(269,91)"/>
<path d="M0 0 C3.96 1.98 7.92 3.96 12 6 C7.6542186 7.08644535 7.05039452 6.90680911 3.25 5.0625 C2.45078125 4.68222656 1.6515625 4.30195313 0.828125 3.91015625 C0.22484375 3.60980469 -0.3784375 3.30945313 -1 3 C-0.67 2.01 -0.34 1.02 0 0 Z " fill="#7D213C" transform="translate(214,268)"/>
<path d="M0 0 C0.763125 0.309375 1.52625 0.61875 2.3125 0.9375 C4.18789677 1.67893593 6.08684652 2.36228217 8 3 C8.33 2.34 8.66 1.68 9 1 C9.99 1.99 10.98 2.98 12 4 C11.67 4.99 11.34 5.98 11 7 C6.89188572 5.55007731 3.53144334 3.54592427 0 1 C0 0.67 0 0.34 0 0 Z " fill="#240106" transform="translate(226,222)"/>
<path d="M0 0 C8.44646925 6.15034169 8.44646925 6.15034169 12 10 C9.03 9.505 9.03 9.505 6 9 C6 8.01 6 7.02 6 6 C4.02 5.34 2.04 4.68 0 4 C0 2.68 0 1.36 0 0 Z " fill="#921C3E" transform="translate(214,213)"/>
<path d="M0 0 C6.0546875 -0.1953125 6.0546875 -0.1953125 8 0 C8.66 0.66 9.32 1.32 10 2 C2.57142857 4.42857143 2.57142857 4.42857143 -1 3 C-0.67 2.01 -0.34 1.02 0 0 Z " fill="#250D10" transform="translate(159,143)"/>
<path d="M0 0 C4.43090471 1.20842856 6.98112756 2.51668565 10 6 C8.35 6 6.7 6 5 6 C5 5.34 5 4.68 5 4 C4.34 4 3.68 4 3 4 C3 4.66 3 5.32 3 6 C2.01 5.67 1.02 5.34 0 5 C0.66 4.67 1.32 4.34 2 4 C2 3.34 2 2.68 2 2 C1.34 2 0.68 2 0 2 C0 1.34 0 0.68 0 0 Z " fill="#981C3E" transform="translate(347,31)"/>
<path d="M0 0 C0.99 0.33 1.98 0.66 3 1 C3 1.99 3 2.98 3 4 C4.32 4.33 5.64 4.66 7 5 C7.33 6.98 7.66 8.96 8 11 C6.33333333 9.33333333 4.66666667 7.66666667 3 6 C2.401875 5.46375 1.80375 4.9275 1.1875 4.375 C0 3 0 3 0 0 Z " fill="#1B0003" transform="translate(334,217)"/>
<path d="M0 0 C1.9375 0.6875 1.9375 0.6875 4 2 C4.75 4.625 4.75 4.625 5 7 C5.66 7 6.32 7 7 7 C7 7.66 7 8.32 7 9 C4.13275314 8.42655063 3.1385485 8.1385485 1 6 C0.60235737 4.01178687 0.26224651 2.01055661 0 0 Z " fill="#100001" transform="translate(198,192)"/>
<path d="M0 0 C4.95 0.33 9.9 0.66 15 1 C14.67 2.65 14.34 4.3 14 6 C13.67 5.34 13.34 4.68 13 4 C10.83532539 3.37330801 8.64135476 2.84572626 6.4375 2.375 C5.23996094 2.11460937 4.04242188 1.85421875 2.80859375 1.5859375 C1.88175781 1.39257812 0.95492187 1.19921875 0 1 C0 0.67 0 0.34 0 0 Z " fill="#23070C" transform="translate(197,147)"/>
<path d="M0 0 C0.99 0.33 1.98 0.66 3 1 C5.14255793 0.61067144 5.14255793 0.61067144 7 0 C5.68 1.65 4.36 3.3 3 5 C2.01 4.67 1.02 4.34 0 4 C-0.99 5.32 -1.98 6.64 -3 8 C-3.66 7.67 -4.32 7.34 -5 7 C-3.35 4.69 -1.7 2.38 0 0 Z " fill="#332628" transform="translate(217,140)"/>
<path d="M0 0 C0.83689211 2.88989305 1.08425974 5.37324667 1 8.375 C0.95166768 12.03013157 1.26276592 15.40598385 2 19 C0 18 0 18 -1 15 C-1.22560676 12.60745424 -1.40848595 10.21071877 -1.5625 7.8125 C-1.64628906 6.54019531 -1.73007813 5.26789062 -1.81640625 3.95703125 C-1.87699219 2.98121094 -1.93757812 2.00539063 -2 1 C-1.34 0.67 -0.68 0.34 0 0 Z " fill="#1C0003" transform="translate(244,16)"/>
<path d="M0 0 C1.14926266 0.95421808 2.29430541 1.91352045 3.4375 2.875 C4.07558594 3.40867188 4.71367187 3.94234375 5.37109375 4.4921875 C7 6 7 6 8 8 C6.68 7.67 5.36 7.34 4 7 C3.67 7.99 3.34 8.98 3 10 C2.34 8.68 1.68 7.36 1 6 C1.66 6 2.32 6 3 6 C3 5.34 3 4.68 3 4 C2.34 4 1.68 4 1 4 C0.67 2.68 0.34 1.36 0 0 Z " fill="#2B0209" transform="translate(202,195)"/>
<path d="M0 0 C-1 3 -1 3 -4 5 C-6.48046875 5.4140625 -6.48046875 5.4140625 -9.1875 5.625 C-10.08855469 5.69976562 -10.98960937 5.77453125 -11.91796875 5.8515625 C-12.60503906 5.90054687 -13.29210937 5.94953125 -14 6 C-11.47732009 4.31821339 -9.18908177 3.09893258 -6.4375 1.875 C-5.65246094 1.52179688 -4.86742187 1.16859375 -4.05859375 0.8046875 C-2 0 -2 0 0 0 Z " fill="#210106" transform="translate(345,292)"/>
<path d="M0 0 C-3.44450737 2.29633824 -5.93812283 2.54016485 -10 3 C-10 2.01 -10 1.02 -10 0 C-6.7169902 -1.6415049 -3.57454967 -0.51888624 0 0 Z " fill="#871838" transform="translate(298,295)"/>
<path d="M0 0 C1.98 0 3.96 0 6 0 C6 0.66 6 1.32 6 2 C7.32 2.33 8.64 2.66 10 3 C9 4 9 4 5.9375 4.0625 C4.968125 4.041875 3.99875 4.02125 3 4 C3 3.34 3 2.68 3 2 C2.01 2 1.02 2 0 2 C0 1.34 0 0.68 0 0 Z " fill="#0A0000" transform="translate(247,231)"/>
<path d="M0 0 C1.17539996 0.92652701 2.34010577 1.86663387 3.5 2.8125 C4.1496875 3.33457031 4.799375 3.85664063 5.46875 4.39453125 C7 6 7 6 7 9 C5.35 8.67 3.7 8.34 2 8 C2.33 6.68 2.66 5.36 3 4 C2.01 3.67 1.02 3.34 0 3 C0 2.01 0 1.02 0 0 Z " fill="#911C3D" transform="translate(320,206)"/>
<path d="M0 0 C0.33 0 0.66 0 1 0 C1.3690205 9.41002278 1.3690205 9.41002278 -1 14 C-1.66 14 -2.32 14 -3 14 C-2.01 9.38 -1.02 4.76 0 0 Z " fill="#200005" transform="translate(324,130)"/>
<path d="M0 0 C1.65 0.33 3.3 0.66 5 1 C4.01 2.98 3.02 4.96 2 7 C1.34 6.34 0.68 5.68 0 5 C-0.99 5.33 -1.98 5.66 -3 6 C-2 4 -1 2 0 0 Z " fill="#FAE2EB" transform="translate(239,128)"/>
<path d="M0 0 C3.99452176 1.36955032 6.92159754 3.0926199 10 6 C10.640625 8.1328125 10.640625 8.1328125 11 10 C9.72390677 9.09066991 8.45434447 8.17217147 7.1875 7.25 C6.47980469 6.73953125 5.77210938 6.2290625 5.04296875 5.703125 C2.97022309 3.97517642 1.52624146 2.21473524 0 0 Z " fill="#270107" transform="translate(368,43)"/>
<path d="M0 0 C0.66 0 1.32 0 2 0 C2 0.99 2 1.98 2 3 C2.66 3 3.32 3 4 3 C4.33 4.32 4.66 5.64 5 7 C1.62496331 5.8141763 -0.64722731 4.72426311 -3 2 C-2.01 2 -1.02 2 0 2 C0 1.34 0 0.68 0 0 Z " fill="#2A2728" transform="translate(174,250)"/>
<path d="M0 0 C0.66 0.33 1.32 0.66 2 1 C1.67 1.66 1.34 2.32 1 3 C2.98 3 4.96 3 7 3 C7 3.33 7 3.66 7 4 C3.04 4 -0.92 4 -5 4 C-2 1 -2 1 0 0 Z " fill="#E6AEC0" transform="translate(166,152)"/>
<path d="M0 0 C3.04386724 -0.08226668 5.07175348 0.02391783 8 1 C8.66 1 9.32 1 10 1 C9.67 2.32 9.34 3.64 9 5 C5.22454612 3.90931332 2.52956528 3.0916909 0 0 Z " fill="#931B3C" transform="translate(291,75)"/>
<path d="M0 0 C0.598125 0.20625 1.19625 0.4125 1.8125 0.625 C1.8125 2.275 1.8125 3.925 1.8125 5.625 C-1.6525 3.645 -1.6525 3.645 -5.1875 1.625 C-2.1875 -0.375 -2.1875 -0.375 0 0 Z " fill="#97193B" transform="translate(179.1875,236.375)"/>
<path d="M0 0 C1.32 0.33 2.64 0.66 4 1 C4 1.66 4 2.32 4 3 C4.99 3.33 5.98 3.66 7 4 C3.98968256 4.93423645 3.13349732 5.04449911 0 4 C0 2.68 0 1.36 0 0 Z " fill="#0C0101" transform="translate(237,226)"/>
<path d="M0 0 C-0.33 2.97 -0.66 5.94 -1 9 C-1.66 8.67 -2.32 8.34 -3 8 C-3 5.69 -3 3.38 -3 1 C-1 0 -1 0 0 0 Z " fill="#060000" transform="translate(194,175)"/>
<path d="M0 0 C0.66 0.33 1.32 0.66 2 1 C-0.475 4.465 -0.475 4.465 -3 8 C-5 4.25 -5 4.25 -5 2 C-2.625 0.9375 -2.625 0.9375 0 0 Z " fill="#170203" transform="translate(238,117)"/>
<path d="M0 0 C7.75 -0.125 7.75 -0.125 10 1 C10 1.66 10 2.32 10 3 C2.25 2.25 2.25 2.25 0 0 Z " fill="#270207" transform="translate(269,289)"/>
<path d="M0 0 C2.625 0.9375 2.625 0.9375 5 2 C4.01 2.495 4.01 2.495 3 3 C2.01 4.485 2.01 4.485 1 6 C-0.5 4.625 -0.5 4.625 -2 3 C-2 2.34 -2 1.68 -2 1 C-1.34 0.67 -0.68 0.34 0 0 Z " fill="#260209" transform="translate(212,207)"/>
<path d="M0 0 C2 3 2 3 2 5 C0.02 5.99 -1.96 6.98 -4 8 C-4 7.01 -4 6.02 -4 5 C-3.34 5 -2.68 5 -2 5 C-1.34 3.35 -0.68 1.7 0 0 Z " fill="#AD1842" transform="translate(251,103)"/>
<path d="M0 0 C3.25 -0.25 3.25 -0.25 7 0 C8.32 1.32 9.64 2.64 11 4 C7.37 3.01 3.74 2.02 0 1 C0 0.67 0 0.34 0 0 Z " fill="#2B0309" transform="translate(284,5)"/>
<path d="M0 0 C0.66 0.33 1.32 0.66 2 1 C0.90241493 1.84198307 -0.20335317 2.67330671 -1.3125 3.5 C-1.92738281 3.9640625 -2.54226563 4.428125 -3.17578125 4.90625 C-5 6 -5 6 -8 6 C-8 5.34 -8 4.68 -8 4 C-6.71349294 3.30289269 -5.42059335 2.61757124 -4.125 1.9375 C-3.40570313 1.55464844 -2.68640625 1.17179687 -1.9453125 0.77734375 C-1.30335938 0.52082031 -0.66140625 0.26429688 0 0 Z " fill="#75263E" transform="translate(345,289)"/>
<path d="M0 0 C3.96 1.98 3.96 1.98 8 4 C7.67 4.66 7.34 5.32 7 6 C5.35 5.67 3.7 5.34 2 5 C2 4.34 2 3.68 2 3 C1.34 3 0.68 3 0 3 C0 2.01 0 1.02 0 0 Z " fill="#D8D8D8" transform="translate(207,273)"/>
<path d="M0 0 C3.91211733 1.15585285 6.8745041 2.35534962 10 5 C6.63295715 5.2295711 4.58629732 5.33943529 1.625 3.625 C1.08875 3.08875 0.5525 2.5525 0 2 C0 1.34 0 0.68 0 0 Z " fill="#210004" transform="translate(209,269)"/>
<path d="M0 0 C2.31 1.98 4.62 3.96 7 6 C6.01 6.33 5.02 6.66 4 7 C4 6.34 4 5.68 4 5 C1.525 4.01 1.525 4.01 -1 3 C-0.67 2.01 -0.34 1.02 0 0 Z " fill="#962042" transform="translate(331,217)"/>
<path d="M0 0 C0.59732819 2.76264289 1 5.16032769 1 8 C-0.98 5.69 -2.96 3.38 -5 1 C-2 0 -2 0 0 0 Z " fill="#A01C41" transform="translate(148,209)"/>
<path d="M0 0 C2.875 0.625 2.875 0.625 6 2 C7.375 5.125 7.375 5.125 8 8 C6.85073734 7.04578192 5.70569459 6.08647955 4.5625 5.125 C3.92441406 4.59132812 3.28632813 4.05765625 2.62890625 3.5078125 C1 2 1 2 0 0 Z " fill="#1A0001" transform="translate(318,203)"/>
<path d="M0 0 C1.9453125 -0.29296875 1.9453125 -0.29296875 4.125 -0.1875 C5.40375 -0.125625 6.6825 -0.06375 8 0 C7.67 0.66 7.34 1.32 7 2 C4.93359375 2.4140625 4.93359375 2.4140625 2.4375 2.625 C1.61121094 2.69976562 0.78492188 2.77453125 -0.06640625 2.8515625 C-1.02353516 2.92503906 -1.02353516 2.92503906 -2 3 C-1.34 2.01 -0.68 1.02 0 0 Z " fill="#FFF6FB" transform="translate(177,152)"/>
<path d="M0 0 C0.33 1.32 0.66 2.64 1 4 C-1.4375 6.75 -1.4375 6.75 -4 9 C-4.66 8.67 -5.32 8.34 -6 8 C-4.02 5.36 -2.04 2.72 0 0 Z " fill="#8E1D3C" transform="translate(233,127)"/>
<path d="M0 0 C3.53600465 1.91135386 5.78972846 3.62642766 8 7 C6.35 6.67 4.7 6.34 3 6 C3 5.01 3 4.02 3 3 C2.01 2.67 1.02 2.34 0 2 C0 1.34 0 0.68 0 0 Z " fill="#951E3F" transform="translate(370,46)"/>
<path d="M0 0 C3.73487777 0.4979837 5.81237635 0.87491756 9 3 C9 3.66 9 4.32 9 5 C5.22454612 3.90931332 2.52956528 3.0916909 0 0 Z " fill="#230106" transform="translate(215,268)"/>
<path d="M0 0 C1.88343932 3.76687864 2.22057835 5.02958963 2 9 C1.01 9 0.02 9 -1 9 C-0.67 6.03 -0.34 3.06 0 0 Z " fill="#120002" transform="translate(127,194)"/>
<path d="M0 0 C0.66 0 1.32 0 2 0 C2 0.66 2 1.32 2 2 C2.66 2.33 3.32 2.66 4 3 C2.35 4.65 0.7 6.3 -1 8 C-1 6.68 -1 5.36 -1 4 C-0.34 4 0.32 4 1 4 C0.67 2.68 0.34 1.36 0 0 Z " fill="#A32749" transform="translate(252,104)"/>
<path d="M0 0 C0.66 0.33 1.32 0.66 2 1 C1.19152271 2.16945792 0.37810888 3.33550461 -0.4375 4.5 C-0.88996094 5.1496875 -1.34242188 5.799375 -1.80859375 6.46875 C-2.20175781 6.9740625 -2.59492188 7.479375 -3 8 C-3.33 8 -3.66 8 -4 8 C-4 6.35 -4 4.7 -4 3 C-3.34 3 -2.68 3 -2 3 C-1.34 2.01 -0.68 1.02 0 0 Z " fill="#1D0104" transform="translate(249,101)"/>
<path d="M0 0 C0.86625 0.3403125 0.86625 0.3403125 1.75 0.6875 C-4 4.6875 -4 4.6875 -6.25 4.6875 C-6.25 4.0275 -6.25 3.3675 -6.25 2.6875 C-3.02697842 -0.42041367 -3.02697842 -0.42041367 0 0 Z " fill="#971C3F" transform="translate(382.25,90.3125)"/>
<path d="M0 0 C2.475 0.495 2.475 0.495 5 1 C5 1.99 5 2.98 5 4 C5.66 4 6.32 4 7 4 C6.67 4.99 6.34 5.98 6 7 C4.02 4.69 2.04 2.38 0 0 Z " fill="#1D0004" transform="translate(252,56)"/>
<path d="M0 0 C2.31 0 4.62 0 7 0 C7 0.99 7 1.98 7 3 C5.02 3 3.04 3 1 3 C0.67 2.01 0.34 1.02 0 0 Z " fill="#1A0C0D" transform="translate(257,2)"/>
<path d="M0 0 C0.66 0 1.32 0 2 0 C1.34 3.3 0.68 6.6 0 10 C-0.33 10 -0.66 10 -1 10 C-1.02689216 8.52093108 -1.04634621 7.04172517 -1.0625 5.5625 C-1.07410156 4.73878906 -1.08570313 3.91507813 -1.09765625 3.06640625 C-1 1 -1 1 0 0 Z " fill="#1A0103" transform="translate(315,169)"/>
<path d="M0 0 C0.66 0 1.32 0 2 0 C2 1.65 2 3.3 2 5 C0.68 5 -0.64 5 -2 5 C-1.125 1.125 -1.125 1.125 0 0 Z " fill="#1C1717" transform="translate(130,170)"/>
<path d="M0 0 C0.66 0.99 1.32 1.98 2 3 C0.35 5.31 -1.3 7.62 -3 10 C-3.33 9.34 -3.66 8.68 -4 8 C-3.22265625 6.0546875 -3.22265625 6.0546875 -2.0625 3.875 C-1.49208984 2.78832031 -1.49208984 2.78832031 -0.91015625 1.6796875 C-0.60980469 1.12539062 -0.30945313 0.57109375 0 0 Z " fill="#F2AEC4" transform="translate(214,168)"/>
<path d="M0 0 C0.66 0.33 1.32 0.66 2 1 C1.67 1.99 1.34 2.98 1 4 C0.65772583 5.33106622 0.32248257 6.66400079 0 8 C0 7.34 0 6.68 0 6 C-0.99 6.33 -1.98 6.66 -3 7 C-1.125 1.125 -1.125 1.125 0 0 Z " fill="#443B3C" transform="translate(132,164)"/>
<path d="M0 0 C0.33 0.99 0.66 1.98 1 3 C-1.375 4.5625 -1.375 4.5625 -4 6 C-4.66 5.67 -5.32 5.34 -6 5 C-4.02 3.35 -2.04 1.7 0 0 Z " fill="#911A3C" transform="translate(147,153)"/>
<path d="M0 0 C0.33 1.32 0.66 2.64 1 4 C-0.9375 6.25 -0.9375 6.25 -3 8 C-3.66 7.67 -4.32 7.34 -5 7 C-3.35 4.69 -1.7 2.38 0 0 Z " fill="#A33050" transform="translate(259,107)"/>
<path d="" fill="#FFFFFF" transform="translate(0,0)"/>
<path d="" fill="#FFFFFF" transform="translate(0,0)"/>
<path d="" fill="#FFFFFF" transform="translate(0,0)"/>
<path d="" fill="#FFFFFF" transform="translate(0,0)"/>
<path d="" fill="#FFFFFF" transform="translate(0,0)"/>
<path d="" fill="#FFFFFF" transform="translate(0,0)"/>
<path d="" fill="#FFFFFF" transform="translate(0,0)"/>
<path d="" fill="#FFFFFF" transform="translate(0,0)"/>
<path d="" fill="#FFFFFF" transform="translate(0,0)"/>
<path d="" fill="#FFFFFF" transform="translate(0,0)"/>
<path d="" fill="#FFFFFF" transform="translate(0,0)"/>
<path d="" fill="#FFFFFF" transform="translate(0,0)"/>
<path d="" fill="#FFFFFF" transform="translate(0,0)"/>
<path d="" fill="#FFFFFF" transform="translate(0,0)"/>
<path d="" fill="#FFFFFF" transform="translate(0,0)"/>
<path d="" fill="#FFFFFF" transform="translate(0,0)"/>
<path d="" fill="#FFFFFF" transform="translate(0,0)"/>
<path d="" fill="#FFFFFF" transform="translate(0,0)"/>
<path d="" fill="#FFFFFF" transform="translate(0,0)"/>
<path d="" fill="#FFFFFF" transform="translate(0,0)"/>
<path d="" fill="#FFFFFF" transform="translate(0,0)"/>
<path d="" fill="#FFFFFF" transform="translate(0,0)"/>
<path d="" fill="#FFFFFF" transform="translate(0,0)"/>
<path d="" fill="#FFFFFF" transform="translate(0,0)"/>
<path d="" fill="#FFFFFF" transform="translate(0,0)"/>
<path d="" fill="#FFFFFF" transform="translate(0,0)"/>
<path d="" fill="#FFFFFF" transform="translate(0,0)"/>
<path d="" fill="#FFFFFF" transform="translate(0,0)"/>
<path d="" fill="#FFFFFF" transform="translate(0,0)"/>
<path d="" fill="#FFFFFF" transform="translate(0,0)"/>
<path d="" fill="#FFFFFF" transform="translate(0,0)"/>
<path d="" fill="#FFFFFF" transform="translate(0,0)"/>
<path d="" fill="#FFFFFF" transform="translate(0,0)"/>
<path d="" fill="#FFFFFF" transform="translate(0,0)"/>
<path d="" fill="#FFFFFF" transform="translate(0,0)"/>
<path d="" fill="#FFFFFF" transform="translate(0,0)"/>
<path d="" fill="#FFFFFF" transform="translate(0,0)"/>
<path d="" fill="#FFFFFF" transform="translate(0,0)"/>
<path d="" fill="#FFFFFF" transform="translate(0,0)"/>
<path d="" fill="#FFFFFF" transform="translate(0,0)"/>
<path d="" fill="#FFFFFF" transform="translate(0,0)"/>
<path d="" fill="#FFFFFF" transform="translate(0,0)"/>
<path d="" fill="#FFFFFF" transform="translate(0,0)"/>
<path d="" fill="#FFFFFF" transform="translate(0,0)"/>
<path d="" fill="#FFFFFF" transform="translate(0,0)"/>
<path d="" fill="#FFFFFF" transform="translate(0,0)"/>
<path d="" fill="#FFFFFF" transform="translate(0,0)"/>
<path d="" fill="#FFFFFF" transform="translate(0,0)"/>
<path d="" fill="#FFFFFF" transform="translate(0,0)"/>
<path d="" fill="#FFFFFF" transform="translate(0,0)"/>
<path d="" fill="#FFFFFF" transform="translate(0,0)"/>
<path d="" fill="#FFFFFF" transform="translate(0,0)"/>
<path d="" fill="#FFFFFF" transform="translate(0,0)"/>
<path d="" fill="#FFFFFF" transform="translate(0,0)"/>
<path d="" fill="#FFFFFF" transform="translate(0,0)"/>
<path d="" fill="#FFFFFF" transform="translate(0,0)"/>
<path d="" fill="#FFFFFF" transform="translate(0,0)"/>
<path d="" fill="#FFFFFF" transform="translate(0,0)"/>
<path d="" fill="#FFFFFF" transform="translate(0,0)"/>
<path d="" fill="#FFFFFF" transform="translate(0,0)"/>
<path d="" fill="#FFFFFF" transform="translate(0,0)"/>
<path d="" fill="#FFFFFF" transform="translate(0,0)"/>
<path d="" fill="#FFFFFF" transform="translate(0,0)"/>
<path d="" fill="#FFFFFF" transform="translate(0,0)"/>
<path d="" fill="#FFFFFF" transform="translate(0,0)"/>
<path d="" fill="#FFFFFF" transform="translate(0,0)"/>
<path d="" fill="#FFFFFF" transform="translate(0,0)"/>
<path d="" fill="#FFFFFF" transform="translate(0,0)"/>
<path d="" fill="#FFFFFF" transform="translate(0,0)"/>
<path d="" fill="#FFFFFF" transform="translate(0,0)"/>
<path d="" fill="#FFFFFF" transform="translate(0,0)"/>
<path d="" fill="#FFFFFF" transform="translate(0,0)"/>
<path d="" fill="#FFFFFF" transform="translate(0,0)"/>
</svg>
